<svg width="44" height="44" viewBox="0 0 44 44" fill="none" xmlns="http://www.w3.org/2000/svg">
<circle cx="22" cy="22" r="22" fill="#FEBD09"/>
<g clip-path="url(#clip0_5089_61625)">
<path d="M27.0705 14.2022C26.9211 13.5405 26.6355 12.9149 26.2309 12.3626C25.8264 11.8103 25.3111 11.3427 24.7158 10.9878L25.2009 10.5176C25.2986 10.5526 25.402 10.5705 25.5062 10.5704H25.5225C25.642 10.5704 25.7604 10.5475 25.8707 10.5029C25.981 10.4584 26.0811 10.3931 26.1652 10.3108C26.2494 10.2285 26.3158 10.1309 26.3608 10.0236C26.4058 9.91631 26.4284 9.80143 26.4274 9.68561C26.4146 9.45827 26.3124 9.24431 26.1418 9.08776C25.9712 8.93121 25.7452 8.84397 25.5103 8.84397C25.2753 8.84397 25.0493 8.93121 24.8788 9.08776C24.7082 9.24431 24.606 9.45827 24.5932 9.68561C24.5929 9.79503 24.6142 9.9035 24.6559 10.0052L24.0072 10.6312C23.3715 10.3732 22.6892 10.2404 22 10.2404C21.3108 10.2404 20.6285 10.3732 19.9928 10.6312L19.3441 10.0052C19.3858 9.9035 19.4071 9.79503 19.4068 9.68561C19.4068 9.45094 19.3106 9.22588 19.1394 9.05994C18.9682 8.894 18.736 8.80078 18.4938 8.80078H18.4775C18.358 8.80078 18.2396 8.82372 18.1293 8.86828C18.019 8.91284 17.9189 8.97815 17.8348 9.06041C17.7506 9.14268 17.6842 9.24029 17.6392 9.3476C17.5942 9.45491 17.5716 9.56979 17.5726 9.68561C17.5748 9.921 17.6728 10.146 17.8453 10.3118C18.0178 10.4775 18.2509 10.5704 18.4938 10.5704C18.598 10.5705 18.7014 10.5526 18.7991 10.5176L19.2842 10.9878C18.6889 11.3427 18.1736 11.8103 17.7691 12.3626C17.3645 12.9149 17.0789 13.5405 16.9295 14.2022C16.9033 14.3305 16.9068 14.4629 16.9397 14.5898C16.9727 14.7167 17.0342 14.8349 17.12 14.9359C17.2057 15.037 17.3135 15.1183 17.4357 15.1741C17.5578 15.23 17.6911 15.2588 17.8261 15.2587C18.0329 15.2598 18.2338 15.1923 18.3955 15.0674C18.5571 14.9424 18.6697 14.7676 18.7146 14.572C18.876 13.8436 19.2902 13.191 19.8881 12.7228C20.4859 12.2546 21.2314 11.9992 22 11.9992C22.7686 11.9992 23.5141 12.2546 24.1119 12.7228C24.7098 13.191 25.124 13.8436 25.2854 14.572C25.3303 14.7676 25.4429 14.9424 25.6045 15.0674C25.7662 15.1923 25.9671 15.2598 26.1739 15.2587C26.3089 15.2588 26.4422 15.23 26.5643 15.1741C26.6864 15.1183 26.7943 15.037 26.88 14.9359C26.9658 14.8349 27.0273 14.7167 27.0603 14.5898C27.0932 14.4629 27.0967 14.3305 27.0705 14.2022Z" fill="#212121"/>
<path d="M32.957 18.2637H11.0424C10.681 18.2637 10.3344 18.4028 10.0788 18.6505C9.82326 18.8981 9.67969 19.2341 9.67969 19.5843C9.67969 19.9346 9.82326 20.2705 10.0788 20.5181C10.3344 20.7658 10.681 20.9049 11.0424 20.9049H32.957C33.3184 20.9049 33.665 20.7658 33.9206 20.5181C34.1761 20.2705 34.3197 19.9346 34.3197 19.5843C34.3197 19.2341 34.1761 18.8981 33.9206 18.6505C33.665 18.4028 33.3184 18.2637 32.957 18.2637Z" fill="#212121"/>
<path d="M30.4474 23.0293H13.5502C13.1869 23.0293 12.8386 23.1691 12.5818 23.418C12.3249 23.6669 12.1807 24.0045 12.1807 24.3565C12.1807 24.7085 12.3249 25.0461 12.5818 25.295C12.8386 25.5439 13.1869 25.6838 13.5502 25.6838H30.4474C30.8106 25.6838 31.159 25.5439 31.4158 25.295C31.6726 25.0461 31.8169 24.7085 31.8169 24.3565C31.8169 24.0045 31.6726 23.6669 31.4158 23.418C31.159 23.1691 30.8106 23.0293 30.4474 23.0293Z" fill="#212121"/>
<path d="M27.5551 27.7949H16.4574C16.096 27.7949 15.7494 27.9341 15.4938 28.1817C15.2383 28.4294 15.0947 28.7653 15.0947 29.1156C15.0947 29.4658 15.2383 29.8017 15.4938 30.0494C15.7494 30.2971 16.096 30.4362 16.4574 30.4362H21.3958V32.6839C21.1125 32.812 20.8832 33.0306 20.7465 33.3031C20.6097 33.5755 20.5738 33.8853 20.6448 34.1803C20.7157 34.4754 20.8891 34.7379 21.136 34.9237C21.3829 35.1095 21.6882 35.2075 22.0008 35.201H22.0171C22.3279 35.2042 22.6305 35.1044 22.8746 34.918C23.1188 34.7317 23.2899 34.4701 23.3596 34.1766C23.4292 33.883 23.3933 33.5752 23.2577 33.3042C23.1221 33.0332 22.895 32.8153 22.614 32.6865V30.46H27.5687C27.9301 30.46 28.2767 30.3208 28.5323 30.0732C28.7878 29.8255 28.9314 29.4896 28.9314 29.1393C28.9314 28.7891 28.7878 28.4532 28.5323 28.2055C28.2767 27.9578 27.9301 27.8187 27.5687 27.8187L27.5551 27.7949Z" fill="#212121"/>
</g>
<defs>
<clipPath id="clip0_5089_61625">
<rect width="26.4" height="26.4" fill="white" transform="translate(8.7998 8.80078)"/>
</clipPath>
</defs>
</svg>
