<svg width="340" height="300" viewBox="0 0 340 300" fill="none" xmlns="http://www.w3.org/2000/svg">
<g opacity="0.35">
<path d="M18.5293 204.361C18.5293 179.533 40.1096 159.416 66.7258 159.416H76.7799C72.0771 155.619 69.0976 150.016 69.0976 143.759C69.0976 132.327 79.029 123.058 91.2972 123.058H124.766C121.381 120.342 119.216 116.34 119.216 111.836C119.216 103.657 126.329 97.0234 135.104 97.0234H219.138C227.901 97.0234 235.028 103.654 235.028 111.836C235.028 120.018 227.912 126.648 219.138 126.648H187.699C181.84 130.375 177.993 136.65 177.993 143.759C177.993 150.016 180.972 155.619 185.675 159.416H237.426C264.048 159.416 285.623 179.539 285.623 204.361C285.623 229.19 264.039 249.307 237.426 249.307H305.982C318.25 249.307 328.182 258.575 328.182 270.008C328.182 281.441 318.25 290.712 305.982 290.712H333.904C364.422 290.712 389.756 311.34 394.786 338.456H404.592C423.622 338.456 439.06 352.839 439.06 370.587V373.844C439.06 391.586 423.634 405.975 404.592 405.975H80.361C46.2262 405.975 18.5555 380.174 18.5555 348.349C18.5555 316.51 46.2262 290.724 80.361 290.724H188.561C176.292 290.724 166.361 281.455 166.361 270.02C166.361 258.584 176.292 249.319 188.561 249.319H66.755C40.1096 249.307 18.5293 229.184 18.5293 204.361Z" fill="#FEBD09" fill-opacity="0.2"/>
<path d="M264.19 126.648C256.222 126.648 249.758 120.018 249.758 111.836C249.758 103.654 256.222 97.0234 264.19 97.0234C272.159 97.0234 278.626 103.654 278.626 111.836C278.626 120.018 272.162 126.648 264.19 126.648Z" fill="#ABE9FF"/>
</g>
<path opacity="0.15" d="M219.333 425.599C339.947 425.599 437.724 420.283 437.724 413.725C437.724 407.168 339.947 401.852 219.333 401.852C98.7186 401.852 0.941406 407.168 0.941406 413.725C0.941406 420.283 98.7186 425.599 219.333 425.599Z" fill="#231F20"/>
<path d="M304.792 59.9242C318.529 54.8125 325.445 39.3262 320.239 25.3346C315.033 11.3431 299.676 4.14454 285.938 9.25622C272.201 14.3679 265.285 29.8541 270.491 43.8457C275.697 57.8373 291.054 65.0358 304.792 59.9242Z" fill="#212121"/>
<path d="M303.414 60.2347C317.926 56.7294 326.848 42.124 323.343 27.6126C319.837 13.1012 305.232 4.17899 290.721 7.68431C276.209 11.1896 267.287 25.7951 270.792 40.3065C274.298 54.8179 288.903 63.74 303.414 60.2347Z" fill="white"/>
<path d="M305.383 53.1501C316.114 48.5753 321.104 36.1678 316.529 25.4371C311.955 14.7063 299.547 9.71593 288.816 14.2908C278.086 18.8656 273.095 31.2732 277.67 42.0039C282.245 52.7346 294.653 57.7249 305.383 53.1501Z" fill="#212121"/>
<path d="M299.944 49.3357C308.539 47.7723 314.239 39.5376 312.675 30.9431C311.112 22.3485 302.877 16.6486 294.283 18.2121C285.688 19.7755 279.988 28.0103 281.552 36.6048C283.115 45.1994 291.35 50.8992 299.944 49.3357Z" fill="#FFCA32"/>
<path d="M297.818 43.8402C303.347 43.4283 307.496 38.612 307.084 33.0827C306.672 27.5534 301.856 23.4049 296.326 23.8167C290.797 24.2286 286.648 29.0449 287.06 34.5742C287.472 40.1035 292.288 44.2521 297.818 43.8402Z" fill="#FCFFFB"/>
<path d="M301.431 32.0037C301.796 32.8678 301.898 33.8209 301.721 34.7425C301.545 35.6641 301.1 36.5128 300.441 37.1812C299.783 37.8496 298.941 38.3078 298.022 38.4977C297.103 38.6876 296.149 38.6008 295.279 38.2481C294.41 37.8955 293.664 37.2929 293.137 36.5167C292.61 35.7404 292.325 34.8253 292.318 33.887C292.312 32.9488 292.583 32.0295 293.099 31.2456C293.614 30.4617 294.351 29.8482 295.215 29.4829C296.373 28.9939 297.679 28.9847 298.844 29.4573C300.01 29.93 300.94 30.8458 301.431 32.0037Z" fill="#212121"/>
<path d="M301.433 32.6311L296.336 33.3526L298.874 28.752L299.581 30.2505L322.149 14.8013L323.028 10.5075L331.032 4.48438L330.187 9.6487L335.854 10.2913L326.413 16.3115L323.46 15.7565L300.069 31.1034L301.433 32.6311Z" fill="#FFCA32"/>
<path opacity="0.13" d="M322.48 14.4159L329.917 9.64594L330.697 4.86719L323.293 10.4405L322.48 14.4159Z" fill="white"/>
<path d="M325.331 177.588C325.394 174.832 324.961 172.087 324.055 169.483L329.982 164.225L326.1 157.962L318.797 160.927C316.866 158.927 314.59 157.293 312.079 156.101L312.552 148.215L305.381 146.535L302.296 153.838C299.542 153.811 296.805 154.276 294.214 155.213L288.921 149.255L282.661 153.137L285.699 160.626C283.79 162.526 282.227 164.746 281.081 167.184L272.932 166.693L271.252 173.867L278.861 177.08C278.855 179.714 279.299 182.331 280.176 184.815L273.954 190.33L277.821 196.575L285.559 193.435C287.392 195.294 289.527 196.828 291.874 197.971L291.372 206.311L298.543 207.993L301.779 200.334C304.414 200.374 307.037 199.961 309.532 199.113L315.006 205.291L321.265 201.409L318.198 193.847C320.143 191.979 321.745 189.785 322.933 187.365L330.995 187.853L332.675 180.679L325.331 177.588ZM308.229 186.994C306.273 188.207 304.002 188.814 301.702 188.736C299.402 188.659 297.176 187.901 295.307 186.559C293.437 185.217 292.007 183.35 291.198 181.196C290.39 179.041 290.238 176.695 290.762 174.454C291.287 172.213 292.464 170.178 294.145 168.606C295.826 167.034 297.935 165.996 300.206 165.622C302.477 165.249 304.807 165.558 306.903 166.509C308.999 167.46 310.765 169.011 311.98 170.966C313.605 173.588 314.123 176.748 313.42 179.751C312.717 182.754 310.85 185.355 308.229 186.982V186.994Z" fill="#E7E2D6"/>
<path d="M272.922 166.678L275.346 166.824L275.72 165.227L272.922 166.678Z" fill="#A9CEEA"/>
<path d="M285.454 139.168C285.454 139.168 285.609 138.628 285.922 137.707L284.426 137.199C284.09 138.181 283.936 138.742 283.936 138.742L285.454 139.168Z" fill="#92BFF7"/>
<path d="M285.551 134.161C285.945 133.171 286.374 132.166 286.824 131.176L288.261 131.83C287.823 132.797 287.403 133.781 287.017 134.751L285.551 134.161ZM288.229 128.255C288.717 127.294 289.234 126.333 289.763 125.398L291.136 126.175C290.619 127.089 290.113 128.03 289.637 128.97L288.229 128.255ZM291.428 122.614C292.012 121.691 292.617 120.783 293.23 119.912L294.521 120.824C293.937 121.671 293.332 122.556 292.769 123.453L291.428 122.614ZM295.173 117.31C295.847 116.451 296.551 115.613 297.258 114.815L298.426 115.864C297.74 116.638 297.056 117.453 296.399 118.288L295.173 117.31ZM299.493 112.452C300.27 111.681 301.07 110.936 301.879 110.235L302.913 111.43C302.133 112.105 301.356 112.826 300.605 113.574L299.493 112.452ZM304.414 108.19C305.291 107.533 306.193 106.911 307.099 106.336L307.946 107.67C307.07 108.223 306.193 108.821 305.361 109.455L304.414 108.19ZM309.921 104.7C310.885 104.192 311.878 103.721 312.871 103.301L313.487 104.761C312.535 105.164 311.583 105.617 310.657 106.105L309.921 104.7ZM315.929 102.153C316.957 101.817 318.015 101.519 319.072 101.276L319.434 102.813C318.421 103.052 317.407 103.336 316.42 103.66L315.929 102.153ZM365.025 112.782L365.484 111.272C366.36 111.541 367.26 111.789 368.113 112.002L368.519 112.102L368.148 113.638L367.73 113.536C366.851 113.328 365.937 113.06 365.025 112.782ZM322.274 100.654C323.34 100.494 324.429 100.362 325.516 100.301L325.624 101.878C324.578 101.948 323.53 102.062 322.507 102.217L322.274 100.654ZM371.612 112.744C372.658 112.925 373.706 113.068 374.726 113.174L374.568 114.745C373.511 114.637 372.424 114.488 371.355 114.301L371.612 112.744ZM358.929 110.58L359.537 109.119C360.524 109.531 361.517 109.92 362.487 110.27L361.946 111.757C360.953 111.398 359.94 110.992 358.929 110.58ZM377.86 113.366C378.915 113.39 379.969 113.366 380.991 113.302L381.094 114.877C380.025 114.947 378.926 114.97 377.825 114.947L377.86 113.366ZM354.813 108.716C354.229 108.43 353.653 108.154 353.084 107.89L353.747 106.458C354.331 106.727 354.916 107.006 355.5 107.297L356.633 107.84L355.961 109.268L354.813 108.716ZM328.77 100.201C329.839 100.201 330.931 100.257 332.021 100.342L331.898 101.916C330.847 101.834 329.789 101.788 328.758 101.782L328.77 100.201ZM347.231 105.459L347.78 103.975C348.773 104.343 349.786 104.744 350.788 105.161L350.181 106.622C349.196 106.201 348.215 105.81 347.231 105.442V105.459ZM335.254 100.71C336.306 100.862 337.381 101.049 338.45 101.271L338.132 102.816C337.092 102.603 336.049 102.418 335.029 102.272L335.254 100.71ZM384.099 112.96C385.126 112.796 386.144 112.579 387.149 112.309L387.561 113.837C386.502 114.118 385.43 114.347 384.348 114.52L384.099 112.96ZM341.205 103.531L341.608 102.007C342.63 102.275 343.676 102.591 344.721 102.912L344.239 104.419C343.22 104.092 342.198 103.794 341.205 103.531ZM390.105 111.333C391.071 110.956 392.015 110.524 392.932 110.039L393.672 111.436C392.701 111.949 391.701 112.405 390.678 112.803L390.105 111.333ZM395.591 108.43C396.444 107.842 397.261 107.204 398.038 106.52L399.081 107.688C398.257 108.414 397.391 109.091 396.487 109.715L395.591 108.43ZM400.244 104.341C400.936 103.568 401.583 102.756 402.183 101.91L403.471 102.825C402.839 103.72 402.157 104.578 401.427 105.395L400.244 104.341ZM403.834 99.2755C404.336 98.3662 404.789 97.4301 405.189 96.4714L406.649 97.0818C406.226 98.0921 405.748 99.0789 405.218 100.038L403.834 99.2755ZM406.246 93.5358C406.398 93.0392 406.538 92.5397 406.661 92.0315C406.784 91.5232 406.901 91.0179 407.003 90.5067L408.554 90.8134C408.445 91.3508 408.325 91.8844 408.195 92.4141C408.06 92.9457 407.917 93.4744 407.757 93.9944L406.246 93.5358ZM407.631 84.2908H409.211C409.211 85.3833 409.141 86.4845 409.033 87.5594L407.462 87.4017C407.564 86.3735 407.619 85.3219 407.628 84.2791L407.631 84.2908ZM407.123 78.0545L408.68 77.7857C408.864 78.8607 409.001 79.9531 409.089 81.0309L407.514 81.1595C407.426 80.1138 407.295 79.071 407.12 78.0428L407.123 78.0545ZM405.545 71.9905L407.038 71.4676C407.397 72.4929 407.719 73.5444 407.99 74.593L406.463 74.9903C406.197 73.9738 405.89 72.9631 405.542 71.9788L405.545 71.9905ZM402.992 66.2653L404.38 65.5088C404.9 66.4639 405.388 67.4483 405.84 68.4298L404.397 69.0753C403.959 68.1172 403.492 67.1767 402.99 66.2536L402.992 66.2653ZM399.566 61.0075L400.819 60.0465C401.482 60.9228 402.116 61.7991 402.703 62.7075L401.38 63.5838C400.813 62.6929 400.209 61.8283 399.563 60.9958L399.566 61.0075ZM395.389 56.3135L396.49 55.1801C397.27 55.9396 398.027 56.7312 398.742 57.5344L397.574 58.586C396.87 57.8003 396.137 57.035 395.386 56.3018L395.389 56.3135ZM390.593 52.2416L391.533 50.971C392.41 51.6194 393.263 52.3 394.08 52.9923L393.058 54.1958C392.264 53.5152 391.446 52.8638 390.59 52.2299L390.593 52.2416ZM385.306 48.8065L386.086 47.4336C387.035 47.9711 387.967 48.5377 388.864 49.119L388.002 50.4422C387.131 49.8668 386.223 49.3177 385.312 48.7948L385.306 48.8065Z" fill="#212121"/>
<path d="M371.964 48.2469L362.193 33.7383L388.95 39.1392L382.246 40.6844L378.39 43.065L371.964 48.2469Z" fill="#FFCA32"/>
<path d="M366.143 35.6875L382.246 40.6853L382.529 47.9674L378.39 43.0659L366.143 35.6875Z" fill="#EBB92C"/>
<path d="M95.888 110.38C95.3544 110.24 94.8285 110.098 94.3105 109.956L94.74 108.391L96.2998 108.811L95.888 110.38Z" fill="#B7D8F9"/>
<path d="M102.665 225.428L101.438 226.626C101.438 226.626 101.014 226.19 100.246 225.387L101.488 224.219C102.244 224.996 102.662 225.425 102.665 225.428Z" fill="#B7D8F9"/>
<path d="M100.83 416.36L271.221 416.199C280.074 416.199 287.248 409.294 287.24 400.794L286.924 81.9727C286.924 73.2447 279.54 66.1788 270.45 66.1993L100.909 66.3599C91.819 66.3599 84.458 73.4492 84.4668 82.1743L84.7793 400.996C84.7881 409.484 91.9738 416.369 100.83 416.36Z" fill="#212121"/>
<path d="M106.775 413.227L269.235 413.075C277.706 413.075 284.556 406.357 284.547 398.094L284.255 87.3665C284.255 78.8956 277.195 72.0108 268.508 72.0195L106.854 72.1714C98.1667 72.1714 91.1299 79.065 91.1387 87.5476L91.4308 398.278C91.4395 406.541 98.3098 413.236 106.775 413.227Z" fill="#E5E6EB"/>
<path d="M274.822 83.1183L100.6 83.3008L100.93 398.745L275.153 398.563L274.822 83.1183Z" fill="#E5E6EB"/>
<g clip-path="url(#clip0_5089_62292)">
<path d="M163.356 102.84C163.194 102.115 162.884 101.429 162.445 100.824C162.007 100.219 161.448 99.7067 160.803 99.3179L161.329 98.8028C161.435 98.8412 161.547 98.8608 161.66 98.8607H161.677C161.807 98.8607 161.935 98.8355 162.055 98.7867C162.174 98.7379 162.283 98.6664 162.374 98.5762C162.465 98.4861 162.538 98.3792 162.586 98.2616C162.635 98.144 162.66 98.0182 162.658 97.8913C162.645 97.6422 162.534 97.4078 162.349 97.2363C162.164 97.0648 161.919 96.9692 161.664 96.9692C161.409 96.9692 161.164 97.0648 160.979 97.2363C160.794 97.4078 160.684 97.6422 160.67 97.8913C160.669 98.0112 160.693 98.13 160.738 98.2414L160.034 98.9272C159.345 98.6446 158.605 98.4991 157.858 98.4991C157.111 98.4991 156.371 98.6446 155.682 98.9272L154.979 98.2414C155.024 98.13 155.047 98.0112 155.047 97.8913C155.047 97.6342 154.942 97.3876 154.757 97.2058C154.571 97.024 154.319 96.9219 154.057 96.9219H154.039C153.909 96.9219 153.781 96.947 153.662 96.9958C153.542 97.0446 153.433 97.1162 153.342 97.2063C153.251 97.2965 153.179 97.4034 153.13 97.521C153.081 97.6385 153.057 97.7644 153.058 97.8913C153.06 98.1492 153.167 98.3957 153.354 98.5773C153.541 98.7588 153.793 98.8607 154.057 98.8607C154.17 98.8608 154.282 98.8412 154.388 98.8028L154.914 99.3179C154.268 99.7067 153.71 100.219 153.271 100.824C152.832 101.429 152.523 102.115 152.361 102.84C152.332 102.98 152.336 103.125 152.372 103.264C152.407 103.403 152.474 103.533 152.567 103.643C152.66 103.754 152.777 103.843 152.909 103.904C153.042 103.966 153.186 103.997 153.333 103.997C153.557 103.998 153.775 103.924 153.95 103.787C154.125 103.651 154.247 103.459 154.296 103.245C154.471 102.447 154.92 101.732 155.568 101.219C156.217 100.706 157.025 100.426 157.858 100.426C158.692 100.426 159.5 100.706 160.148 101.219C160.796 101.732 161.245 102.447 161.42 103.245C161.469 103.459 161.591 103.651 161.766 103.787C161.942 103.924 162.159 103.998 162.384 103.997C162.53 103.997 162.675 103.966 162.807 103.904C162.939 103.843 163.056 103.754 163.149 103.643C163.242 103.533 163.309 103.403 163.345 103.264C163.38 103.125 163.384 102.98 163.356 102.84Z" fill="#FEBD09"/>
<path d="M169.738 107.289H145.977C145.586 107.289 145.21 107.441 144.933 107.713C144.656 107.984 144.5 108.352 144.5 108.736C144.5 109.12 144.656 109.488 144.933 109.759C145.21 110.03 145.586 110.183 145.977 110.183H169.738C170.13 110.183 170.505 110.03 170.782 109.759C171.06 109.488 171.215 109.12 171.215 108.736C171.215 108.352 171.06 107.984 170.782 107.713C170.505 107.441 170.13 107.289 169.738 107.289Z" fill="#FEBD09"/>
<path d="M167.018 112.512H148.698C148.304 112.512 147.926 112.665 147.648 112.938C147.369 113.21 147.213 113.58 147.213 113.966C147.213 114.351 147.369 114.721 147.648 114.994C147.926 115.267 148.304 115.42 148.698 115.42H167.018C167.412 115.42 167.79 115.267 168.068 114.994C168.346 114.721 168.503 114.351 168.503 113.966C168.503 113.58 168.346 113.21 168.068 112.938C167.79 112.665 167.412 112.512 167.018 112.512Z" fill="#FEBD09"/>
<path d="M163.883 117.73H151.85C151.459 117.73 151.083 117.883 150.806 118.154C150.529 118.426 150.373 118.794 150.373 119.177C150.373 119.561 150.529 119.929 150.806 120.2C151.083 120.472 151.459 120.624 151.85 120.624H157.205V123.087C156.898 123.227 156.649 123.467 156.501 123.765C156.353 124.064 156.314 124.403 156.39 124.726C156.467 125.049 156.655 125.337 156.923 125.541C157.191 125.744 157.522 125.852 157.861 125.844H157.878C158.215 125.848 158.543 125.739 158.808 125.534C159.073 125.33 159.258 125.044 159.334 124.722C159.409 124.4 159.371 124.063 159.223 123.766C159.076 123.469 158.83 123.231 158.526 123.09V120.65H163.898C164.289 120.65 164.665 120.498 164.942 120.226C165.219 119.955 165.375 119.587 165.375 119.203C165.375 118.82 165.219 118.452 164.942 118.18C164.665 117.909 164.289 117.757 163.898 117.757L163.883 117.73Z" fill="#FEBD09"/>
<path d="M188.603 103.125V113.783H185.943V109.335H181.807V113.783H179.174V103.125H181.807V107.254H185.943V103.125H188.603Z" fill="#212121"/>
<path d="M199.211 103.125V113.783H196.578V103.125H199.211Z" fill="#212121"/>
<path d="M209.216 103.125L211.876 111.144L214.535 103.125H217.351L213.563 113.783H210.171L206.4 103.125H209.216Z" fill="#212121"/>
<path d="M227.165 105.174V107.405H230.844V109.349H227.165V111.716H231.302V113.783H224.541V103.125H231.308V105.174H227.165Z" fill="#212121"/>
<path d="M181.008 117.564C181.198 117.71 181.331 117.914 181.387 118.143H180.991C180.941 118.011 180.85 117.898 180.731 117.819C180.602 117.735 180.451 117.692 180.296 117.697C180.166 117.696 180.038 117.731 179.927 117.798C179.816 117.869 179.728 117.97 179.673 118.088C179.608 118.222 179.577 118.368 179.581 118.516C179.578 118.664 179.609 118.81 179.673 118.944C179.729 119.062 179.817 119.162 179.927 119.234C180.039 119.299 180.166 119.333 180.296 119.332C180.451 119.337 180.602 119.295 180.731 119.211C180.85 119.133 180.941 119.02 180.991 118.889H181.399C181.344 119.119 181.21 119.323 181.02 119.468C180.832 119.592 180.613 119.664 180.387 119.675C180.16 119.686 179.935 119.637 179.735 119.532C179.569 119.435 179.434 119.293 179.348 119.124C179.256 118.938 179.209 118.734 179.209 118.528C179.209 118.321 179.256 118.118 179.348 117.932C179.434 117.762 179.569 117.621 179.735 117.524C179.914 117.421 180.119 117.37 180.326 117.376C180.568 117.366 180.807 117.432 181.008 117.564Z" fill="#212121"/>
<path d="M184.711 117.493C184.884 117.59 185.026 117.732 185.122 117.904C185.219 118.088 185.269 118.293 185.269 118.5C185.269 118.707 185.219 118.912 185.122 119.096C185.026 119.268 184.884 119.412 184.711 119.51C184.534 119.608 184.334 119.659 184.13 119.659C183.927 119.659 183.727 119.608 183.55 119.51C183.376 119.412 183.234 119.268 183.139 119.096C183.04 118.912 182.988 118.708 182.988 118.5C182.988 118.292 183.04 118.088 183.139 117.904C183.234 117.732 183.376 117.59 183.55 117.493C183.727 117.395 183.927 117.344 184.13 117.344C184.334 117.344 184.534 117.395 184.711 117.493ZM183.739 117.782C183.621 117.851 183.527 117.952 183.467 118.072C183.404 118.208 183.371 118.356 183.371 118.506C183.371 118.656 183.404 118.804 183.467 118.94C183.527 119.06 183.621 119.161 183.739 119.229C183.859 119.295 183.994 119.329 184.132 119.328C184.268 119.33 184.403 119.296 184.522 119.229C184.638 119.161 184.732 119.06 184.791 118.94C184.856 118.804 184.889 118.656 184.889 118.506C184.889 118.356 184.856 118.208 184.791 118.072C184.732 117.952 184.638 117.851 184.522 117.782C184.403 117.716 184.268 117.682 184.132 117.684C183.994 117.683 183.859 117.717 183.739 117.782Z" fill="#212121"/>
<path d="M188.816 119.633H188.443L187.323 117.966V119.633H186.951V117.379H187.323L188.443 119.051V117.379H188.816V119.633Z" fill="#212121"/>
<path d="M192.439 119.633H192.066L190.947 117.966V119.633H190.574V117.379H190.947L192.066 119.051V117.379H192.439V119.633Z" fill="#212121"/>
<path d="M194.57 117.671V118.354H195.418V118.643H194.57V119.347H195.515V119.636H194.197V117.379H195.515V117.668L194.57 117.671Z" fill="#212121"/>
<path d="M198.918 117.562C199.107 117.708 199.24 117.912 199.296 118.141H198.9C198.851 118.008 198.76 117.895 198.64 117.817C198.512 117.733 198.36 117.69 198.206 117.695C198.076 117.694 197.949 117.729 197.839 117.797C197.727 117.866 197.637 117.967 197.582 118.086C197.518 118.22 197.486 118.366 197.491 118.514C197.487 118.662 197.518 118.809 197.582 118.942C197.637 119.058 197.725 119.156 197.836 119.224C197.947 119.292 198.075 119.327 198.206 119.324C198.36 119.329 198.512 119.287 198.64 119.203C198.76 119.126 198.851 119.013 198.9 118.882H199.296C199.241 119.111 199.108 119.315 198.918 119.46C198.73 119.585 198.511 119.656 198.284 119.667C198.058 119.678 197.832 119.629 197.632 119.524C197.467 119.426 197.333 119.285 197.245 119.116C197.156 118.93 197.109 118.726 197.109 118.52C197.109 118.314 197.156 118.11 197.245 117.924C197.333 117.755 197.467 117.614 197.632 117.516C197.811 117.413 198.016 117.362 198.223 117.368C198.47 117.358 198.714 117.426 198.918 117.562Z" fill="#212121"/>
<path d="M202.458 117.375V117.664H201.813V119.626H201.438V117.67H200.797V117.381L202.458 117.375Z" fill="#212121"/>
<path d="M207.726 119.632L207.295 119.158C207.286 119.195 207.275 119.232 207.262 119.268C207.233 119.384 207.163 119.487 207.064 119.557C206.959 119.63 206.832 119.668 206.704 119.664C206.574 119.667 206.446 119.637 206.331 119.577C206.227 119.522 206.141 119.439 206.083 119.337C206.023 119.23 205.992 119.109 205.994 118.987C205.991 118.866 206.018 118.745 206.074 118.637C206.124 118.544 206.2 118.466 206.293 118.414C206.383 118.363 206.485 118.336 206.588 118.336H206.612L206.571 118.278C206.522 118.221 206.481 118.158 206.449 118.09C206.419 118.022 206.404 117.949 206.405 117.876C206.405 117.787 206.429 117.7 206.476 117.624C206.527 117.543 206.6 117.477 206.686 117.433C206.789 117.383 206.902 117.359 207.017 117.361C207.176 117.351 207.333 117.399 207.457 117.497C207.558 117.585 207.625 117.705 207.646 117.835C207.668 117.908 207.676 117.985 207.67 118.061H207.318V118.026C207.318 117.994 207.318 117.971 207.318 117.957C207.32 117.879 207.291 117.804 207.238 117.746C207.21 117.719 207.177 117.699 207.14 117.686C207.104 117.672 207.065 117.666 207.026 117.667C206.99 117.665 206.955 117.67 206.921 117.683C206.888 117.695 206.858 117.715 206.834 117.74C206.811 117.762 206.792 117.789 206.78 117.818C206.768 117.847 206.762 117.879 206.763 117.91C206.762 117.962 206.773 118.014 206.795 118.061C206.826 118.114 206.862 118.164 206.902 118.211L208.104 119.641L207.726 119.632ZM206.97 119.247C207.004 119.214 207.031 119.173 207.048 119.129C207.066 119.085 207.074 119.037 207.073 118.99C207.073 118.92 207.053 118.852 207.014 118.793C206.977 118.736 206.925 118.689 206.863 118.657C206.805 118.623 206.739 118.605 206.671 118.605C206.624 118.603 206.577 118.611 206.533 118.627C206.488 118.644 206.448 118.668 206.414 118.7C206.346 118.776 206.309 118.872 206.309 118.972C206.309 119.073 206.346 119.169 206.414 119.244C206.49 119.311 206.589 119.348 206.692 119.346C206.742 119.349 206.793 119.342 206.841 119.325C206.889 119.308 206.933 119.282 206.97 119.247Z" fill="#212121"/>
<path d="M213.462 117.565C213.651 117.71 213.784 117.914 213.84 118.143H213.444C213.394 118.011 213.303 117.898 213.184 117.819C213.056 117.735 212.904 117.693 212.75 117.698C212.619 117.696 212.491 117.731 212.38 117.799C212.269 117.87 212.181 117.97 212.126 118.088C212.062 118.222 212.03 118.369 212.035 118.517C212.031 118.664 212.062 118.811 212.126 118.945C212.182 119.063 212.27 119.163 212.38 119.234C212.492 119.3 212.62 119.334 212.75 119.333C212.904 119.338 213.056 119.295 213.184 119.211C213.303 119.133 213.394 119.021 213.444 118.89H213.84C213.785 119.119 213.652 119.324 213.462 119.469C213.274 119.593 213.055 119.664 212.828 119.675C212.602 119.687 212.376 119.637 212.176 119.532C212.01 119.435 211.876 119.294 211.789 119.124C211.698 118.938 211.65 118.735 211.65 118.528C211.65 118.322 211.698 118.118 211.789 117.932C211.876 117.763 212.01 117.621 212.176 117.524C212.355 117.422 212.56 117.37 212.767 117.376C213.013 117.364 213.257 117.43 213.462 117.565Z" fill="#212121"/>
<path d="M217.152 117.493C217.325 117.59 217.467 117.732 217.563 117.904C217.66 118.088 217.711 118.293 217.711 118.5C217.711 118.707 217.66 118.912 217.563 119.096C217.468 119.268 217.325 119.412 217.152 119.51C216.975 119.608 216.775 119.659 216.572 119.659C216.368 119.659 216.168 119.608 215.991 119.51C215.818 119.412 215.676 119.268 215.58 119.096C215.481 118.912 215.43 118.708 215.43 118.5C215.43 118.292 215.481 118.088 215.58 117.904C215.676 117.732 215.818 117.59 215.991 117.493C216.168 117.395 216.368 117.344 216.572 117.344C216.775 117.344 216.975 117.395 217.152 117.493ZM216.18 117.782C216.062 117.85 215.967 117.951 215.908 118.072C215.845 118.208 215.812 118.356 215.812 118.506C215.812 118.656 215.845 118.804 215.908 118.94C215.967 119.061 216.062 119.162 216.18 119.229C216.3 119.295 216.436 119.329 216.573 119.328C216.71 119.33 216.844 119.296 216.963 119.229C217.08 119.161 217.173 119.06 217.232 118.94C217.297 118.804 217.331 118.656 217.331 118.506C217.331 118.356 217.297 118.208 217.232 118.072C217.173 117.952 217.08 117.851 216.963 117.782C216.844 117.716 216.71 117.682 216.573 117.684C216.44 117.685 216.308 117.718 216.192 117.782H216.18Z" fill="#212121"/>
<path d="M221.795 117.41V119.633H221.42V117.966L220.764 119.633H220.436L219.777 117.966V119.633H219.404V117.41H219.856L220.607 119.187L221.346 117.41H221.795Z" fill="#212121"/>
<path d="M225.941 117.41V119.633H225.566V117.966L224.907 119.633H224.582L223.923 117.966V119.633H223.551V117.41H224L224.75 119.187L225.489 117.41H225.941Z" fill="#212121"/>
<path d="M228.066 117.375V119.632H227.693V117.375H228.066Z" fill="#212121"/>
<path d="M231.307 117.375V117.664H230.663V119.626H230.288V117.67H229.646V117.381L231.307 117.375Z" fill="#212121"/>
</g>
<path d="M215.301 75.5H160.707V79.3966H215.301V75.5Z" fill="#212121"/>
<path d="M168.758 409.582L207.257 409.547C208.866 409.547 210.178 408.67 210.178 407.566V404.236C210.178 403.144 208.872 402.259 207.257 402.262L168.761 402.297C167.151 402.297 165.84 403.173 165.84 404.277V407.607C165.846 408.7 167.148 409.585 168.758 409.582Z" fill="#212121"/>
<path opacity="0.06" d="M100.604 104.219C125.705 207.398 187.766 297.792 275.037 358.287L275.072 398.574L100.852 398.766L100.604 104.219Z" fill="#FEBD09"/>
<path d="M168.575 326.398H254.256C256.205 326.398 257.785 324.301 257.785 321.724C257.785 319.142 256.205 317.051 254.256 317.051H168.575C166.623 317.051 165.043 319.148 165.043 321.724C165.028 324.301 166.609 326.398 168.575 326.398Z" fill="#757575"/>
<path d="M215.208 307.675H254.242C256.19 307.675 257.77 305.581 257.77 303.002C257.77 300.417 256.19 298.328 254.242 298.328H215.208C213.26 298.328 211.68 300.425 211.68 303.002C211.68 305.581 213.266 307.675 215.208 307.675Z" fill="#757575"/>
<path d="M257.332 206.895H149.571C149.329 206.895 149.133 207.091 149.133 207.333V213.3C149.133 213.542 149.329 213.738 149.571 213.738H257.332C257.574 213.738 257.771 213.542 257.771 213.3V207.333C257.771 207.091 257.574 206.895 257.332 206.895Z" fill="#757575"/>
<path d="M137.028 200.902H117.431C117.201 200.902 117.014 201.089 117.014 201.32V219.308C117.014 219.538 117.201 219.725 117.431 219.725H137.028C137.259 219.725 137.446 219.538 137.446 219.308V201.32C137.446 201.089 137.259 200.902 137.028 200.902Z" fill="white"/>
<path d="M257.332 176.438H149.571C149.329 176.438 149.133 176.634 149.133 176.876V182.843C149.133 183.085 149.329 183.281 149.571 183.281H257.332C257.574 183.281 257.771 183.085 257.771 182.843V176.876C257.771 176.634 257.574 176.438 257.332 176.438Z" fill="#757575"/>
<path d="M137.028 170.449H117.431C117.201 170.449 117.014 170.636 117.014 170.867V188.854C117.014 189.085 117.201 189.272 117.431 189.272H137.028C137.259 189.272 137.446 189.085 137.446 188.854V170.867C137.446 170.636 137.259 170.449 137.028 170.449Z" fill="white"/>
<path d="M257.332 236.125H149.571C149.329 236.125 149.133 236.321 149.133 236.563V242.531C149.133 242.773 149.329 242.969 149.571 242.969H257.332C257.574 242.969 257.771 242.773 257.771 242.531V236.563C257.771 236.321 257.574 236.125 257.332 236.125Z" fill="#757575"/>
<path d="M137.028 230.137H117.431C117.201 230.137 117.014 230.324 117.014 230.554V248.542C117.014 248.773 117.201 248.96 117.431 248.96H137.028C137.259 248.96 137.446 248.773 137.446 248.542V230.554C137.446 230.324 137.259 230.137 137.028 230.137Z" fill="white"/>
<path d="M257.332 265.355H149.571C149.329 265.355 149.133 265.552 149.133 265.794V271.761C149.133 272.003 149.329 272.199 149.571 272.199H257.332C257.574 272.199 257.771 272.003 257.771 271.761V265.794C257.771 265.552 257.574 265.355 257.332 265.355Z" fill="#757575"/>
<path d="M137.028 259.367H117.431C117.201 259.367 117.014 259.554 117.014 259.785V277.772C117.014 278.003 117.201 278.19 117.431 278.19H137.028C137.259 278.19 137.446 278.003 137.446 277.772V259.785C137.446 259.554 137.259 259.367 137.028 259.367Z" fill="white"/>
<path d="M256.254 145.949H116.014C115.89 145.949 115.789 146.05 115.789 146.174V149.148C115.789 149.272 115.89 149.373 116.014 149.373H256.254C256.378 149.373 256.479 149.272 256.479 149.148V146.174C256.479 146.05 256.378 145.949 256.254 145.949Z" fill="#757575"/>
<path d="M122.829 184.459C122.39 184.46 121.956 184.361 121.56 184.171C121.164 183.981 120.816 183.704 120.542 183.361L114.925 176.35C114.747 176.138 114.614 175.892 114.533 175.628C114.452 175.363 114.424 175.085 114.452 174.809C114.48 174.534 114.562 174.267 114.694 174.024C114.827 173.78 115.006 173.566 115.222 173.393C115.439 173.22 115.687 173.092 115.954 173.017C116.22 172.941 116.499 172.92 116.773 172.953C117.048 172.987 117.314 173.075 117.554 173.212C117.794 173.35 118.005 173.534 118.173 173.754L123.039 179.835L137.936 168.616C138.154 168.446 138.403 168.321 138.669 168.249C138.936 168.176 139.214 168.158 139.488 168.194C139.761 168.23 140.025 168.32 140.263 168.459C140.502 168.598 140.71 168.783 140.876 169.004C141.043 169.224 141.163 169.475 141.231 169.743C141.299 170.01 141.313 170.289 141.273 170.562C141.232 170.835 141.137 171.097 140.994 171.333C140.851 171.569 140.663 171.774 140.44 171.937L124.511 183.939C124.017 184.282 123.43 184.463 122.829 184.459Z" fill="#212121"/>
<path d="M122.829 216.215C122.39 216.216 121.956 216.118 121.56 215.929C121.164 215.739 120.816 215.463 120.542 215.12L114.925 208.109C114.747 207.897 114.614 207.651 114.533 207.386C114.452 207.122 114.424 206.844 114.452 206.568C114.48 206.293 114.562 206.026 114.694 205.782C114.827 205.539 115.006 205.325 115.222 205.152C115.439 204.979 115.687 204.851 115.954 204.776C116.22 204.7 116.499 204.679 116.773 204.712C117.048 204.746 117.314 204.834 117.554 204.971C117.794 205.109 118.005 205.293 118.173 205.513L123.039 211.594L137.936 200.378C138.153 200.201 138.403 200.07 138.672 199.992C138.941 199.914 139.222 199.892 139.5 199.925C139.777 199.959 140.045 200.048 140.288 200.188C140.53 200.327 140.742 200.514 140.91 200.737C141.079 200.961 141.2 201.216 141.268 201.487C141.336 201.758 141.348 202.04 141.304 202.317C141.26 202.593 141.161 202.857 141.012 203.094C140.864 203.331 140.669 203.536 140.44 203.696L124.511 215.698C124.017 216.039 123.43 216.22 122.829 216.215Z" fill="#212121"/>
<path d="M122.829 245.11C122.39 245.111 121.956 245.013 121.56 244.823C121.164 244.634 120.816 244.357 120.542 244.014L114.925 237.004C114.747 236.791 114.614 236.546 114.533 236.281C114.452 236.016 114.424 235.738 114.452 235.463C114.48 235.187 114.562 234.92 114.694 234.677C114.827 234.434 115.006 234.22 115.222 234.047C115.439 233.874 115.687 233.746 115.954 233.67C116.22 233.595 116.499 233.573 116.773 233.607C117.048 233.64 117.314 233.728 117.554 233.866C117.794 234.003 118.005 234.187 118.173 234.407L123.039 240.489L137.936 229.272C138.153 229.095 138.403 228.964 138.672 228.887C138.941 228.809 139.222 228.786 139.5 228.82C139.777 228.853 140.045 228.943 140.288 229.082C140.53 229.222 140.742 229.409 140.91 229.632C141.079 229.855 141.2 230.11 141.268 230.381C141.336 230.653 141.348 230.935 141.304 231.211C141.26 231.487 141.161 231.752 141.012 231.989C140.864 232.226 140.669 232.43 140.44 232.59L124.511 244.593C124.017 244.934 123.43 245.114 122.829 245.11Z" fill="#212121"/>
<path d="M122.828 274.955C122.389 274.956 121.956 274.858 121.56 274.668C121.164 274.479 120.816 274.202 120.541 273.859L114.924 266.849C114.594 266.417 114.445 265.873 114.511 265.333C114.577 264.793 114.852 264.3 115.277 263.961C115.702 263.621 116.243 263.461 116.784 263.516C117.325 263.57 117.824 263.835 118.172 264.252L123.039 270.337L137.936 259.117C138.377 258.796 138.927 258.661 139.466 258.741C140.006 258.822 140.492 259.111 140.821 259.547C141.149 259.982 141.293 260.53 141.222 261.071C141.15 261.612 140.869 262.103 140.439 262.438L124.511 274.438C124.017 274.779 123.429 274.96 122.828 274.955Z" fill="#212121"/>
<path d="M136.698 372.361C135.936 372.744 134.411 373.124 132.454 373.124C127.926 373.124 124.518 370.264 124.518 364.994C124.518 359.967 127.926 356.559 132.907 356.559C134.911 356.559 136.175 356.985 136.722 357.271L136.222 358.965C135.204 358.505 134.097 358.277 132.98 358.297C129.215 358.297 126.711 360.706 126.711 364.924C126.711 368.859 128.975 371.386 132.883 371.386C134.046 371.403 135.2 371.175 136.269 370.717L136.698 372.361Z" fill="#212121"/>
<path d="M152.526 364.687C152.526 370.219 149.164 373.158 145.065 373.158C140.821 373.158 137.842 369.866 137.842 365.002C137.842 359.902 141.011 356.566 145.302 356.566C149.689 356.561 152.526 359.92 152.526 364.687ZM140.059 364.95C140.059 368.382 141.917 371.458 145.182 371.458C148.448 371.458 150.332 368.432 150.332 364.783C150.332 361.588 148.664 358.252 145.208 358.252C141.753 358.252 140.059 361.421 140.059 364.95Z" fill="#212121"/>
<path d="M168.762 365.833C168.642 363.592 168.499 360.899 168.523 358.895H168.453C167.903 360.779 167.234 362.78 166.425 364.997L163.589 372.793H162.015L159.418 365.14C158.653 362.877 158.01 360.803 157.557 358.895H157.51C157.461 360.899 157.344 363.592 157.201 365.999L156.771 372.89H154.791L155.913 356.824H158.559L161.299 364.597C161.968 366.574 162.517 368.339 162.92 370.007H162.993C163.396 368.386 163.969 366.621 164.684 364.597L167.544 356.824H170.19L171.192 372.89H169.159L168.762 365.833Z" fill="#212121"/>
<path d="M174.387 357.012C175.703 356.796 177.034 356.692 178.368 356.7C180.413 356.7 181.92 357.179 182.872 358.035C183.337 358.459 183.704 358.979 183.947 359.56C184.19 360.141 184.304 360.768 184.28 361.397C184.28 362.857 183.851 363.996 183.039 364.829C181.943 365.997 180.156 366.581 178.129 366.581C177.569 366.6 177.009 366.552 176.461 366.438V372.864H174.387V357.012ZM176.461 364.759C177.023 364.885 177.599 364.941 178.175 364.925C180.679 364.925 182.206 363.71 182.206 361.493C182.206 359.369 180.702 358.347 178.409 358.347C177.753 358.328 177.098 358.384 176.455 358.514L176.461 364.759Z" fill="#212121"/>
<path d="M187.07 356.82H189.144V371.133H196.009V372.886H187.07V356.82Z" fill="#212121"/>
<path d="M206.641 365.353H200.396V371.145H207.357V372.898H198.322V356.832H206.998V358.585H200.396V363.661H206.641V365.353Z" fill="#212121"/>
<path d="M213.482 358.585H208.592V356.832H220.486V358.585H215.576V372.898H213.479L213.482 358.585Z" fill="#212121"/>
<path d="M230.6 365.353H224.367V371.145H231.328V372.898H222.293V356.832H230.971V358.585H224.367V363.661H230.615L230.6 365.353Z" fill="#212121"/>
<path d="M234.006 357.035C235.465 356.813 236.938 356.7 238.414 356.699C241.396 356.699 243.517 357.392 244.922 358.703C246.327 360.015 247.188 361.872 247.188 364.472C247.188 367.072 246.376 369.239 244.875 370.717C243.373 372.195 240.894 373.031 237.771 373.031C236.513 373.038 235.256 372.973 234.006 372.838V357.035ZM236.08 371.243C236.775 371.337 237.476 371.376 238.177 371.36C242.611 371.36 245.018 368.883 245.018 364.542C245.041 360.745 242.897 358.347 238.51 358.347C237.695 358.333 236.88 358.405 236.08 358.56V371.243Z" fill="#212121"/>
<path d="M306.278 218.778C306.278 218.778 308.147 221.407 304.326 223.352C303.45 223.802 303.415 224.932 303.856 226.489L299.726 227.541C299.168 222.806 298.893 219.181 299.072 218.357C299.559 216.07 299.925 214.834 301.464 215.678C303.003 216.523 303.406 213.87 304.56 214.817C305.714 215.763 306.587 212.839 307.391 214.346C308.194 215.854 306.278 218.778 306.278 218.778Z" fill="#FBC0A4"/>
<path d="M298.756 227.485L298.385 224.634C298.385 224.634 301.826 222.998 305.01 223.67L305.357 226.331L298.756 227.485Z" fill="#F8E8D8"/>
<path d="M324.436 273.349C324.436 273.349 300.192 256.752 298.019 251.701C295.845 246.651 298.019 225.488 298.019 225.488L305.429 223.914L307.158 248.065C307.158 248.065 335.177 256.951 324.436 273.349Z" fill="#4484E0"/>
<path d="M299.208 242.057C300.192 249.702 300.917 250.791 300.917 250.791C302.348 254.244 321.244 271.118 321.253 271.13C314.607 266.436 299.71 255.614 298.019 251.702C296.284 247.689 297.298 233.513 297.785 227.855C298.081 231.48 298.592 237.252 299.208 242.057Z" fill="#286BCE"/>
<path d="M331.858 404.039L332.363 409.419C332.363 409.419 327.36 411.663 326.472 410.588C325.584 409.513 324.973 409.802 324.973 409.802L324.547 402.996L331.858 404.039Z" fill="#22313B"/>
<path d="M353.687 402.389L353.375 407.553L346.858 407.208L346.084 401.457L353.687 402.389Z" fill="#22313B"/>
<path d="M351.942 315.283C351.942 315.283 352.307 328.79 351.559 336.539C350.811 344.289 349.421 363.637 350.534 369.398C351.556 374.69 354.679 397.863 355.257 404.578C355.272 404.754 355.251 404.93 355.195 405.097C355.139 405.264 355.048 405.417 354.93 405.547C354.811 405.677 354.667 405.781 354.506 405.853C354.345 405.924 354.171 405.962 353.995 405.963C351.121 405.963 346.523 406.474 345.74 404.999C344.733 403.097 337.252 373.656 336.139 367.902C335.424 364.305 334.367 360.784 332.984 357.386C332.984 357.386 332.237 365.133 332.4 370.922L333.323 405.051C333.33 405.248 333.295 405.443 333.221 405.625C333.147 405.807 333.035 405.971 332.892 406.106C332.75 406.241 332.58 406.344 332.394 406.408C332.209 406.473 332.012 406.497 331.816 406.48C329.187 406.231 326.006 406.188 323.877 405.539C323.877 405.539 320.453 382.846 319.203 372.263C317.953 361.68 316.028 323.161 318.663 318.724C321.298 314.287 351.942 315.283 351.942 315.283Z" fill="#3F4752"/>
<path d="M355.259 404.578C355.274 404.753 355.253 404.93 355.197 405.097C355.14 405.263 355.05 405.417 354.931 405.547C354.813 405.677 354.668 405.781 354.508 405.853C354.347 405.924 354.173 405.962 353.997 405.962C353.375 405.962 352.571 405.962 351.701 405.936C350.22 395.093 345 364.166 343.995 357.523C343.119 351.778 345.748 327.242 347.127 315.195C350.033 315.222 351.943 315.283 351.943 315.283C351.943 315.283 352.309 328.79 351.561 336.539C350.813 344.288 349.423 363.637 350.535 369.397C351.558 374.69 354.68 397.863 355.259 404.578Z" fill="#2F3740"/>
<path d="M330.008 335.734C331.068 339.567 333.428 358.48 333.428 358.48C333.159 357.776 332.987 357.367 332.987 357.367C332.987 357.367 332.239 365.114 332.403 370.903L333.326 405.032C333.333 405.228 333.298 405.424 333.224 405.606C333.149 405.788 333.037 405.951 332.894 406.087C332.752 406.222 332.582 406.325 332.397 406.389C332.211 406.454 332.014 406.478 331.819 406.461C329.631 406.253 327.145 406.104 324.639 405.584C326.429 405.207 329.193 403.89 329.896 402.348C330.802 400.388 327.925 364.749 327.925 364.749C329.651 357.954 330.008 335.734 330.008 335.734Z" fill="#2F3740"/>
<path d="M354.444 407.787C354.444 407.787 347.323 405.257 345.585 406.224C345.585 406.224 345.635 408.05 344.779 408.99C343.923 409.931 338.785 415.568 339.691 416.456C340.596 417.344 349.429 417.993 354.667 416.009L354.444 407.787Z" fill="#2D313D"/>
<path d="M332.444 408.274C332.517 408.266 332.592 408.274 332.662 408.297C332.732 408.319 332.797 408.357 332.852 408.406C332.907 408.455 332.951 408.515 332.981 408.583C333.012 408.65 333.028 408.723 333.028 408.797L333.215 415.702C333.215 415.702 334.033 416.511 329.251 416.654C324.469 416.798 311.725 417.177 310.893 416.362C310.06 415.547 310.846 414.7 314.789 412.916C318.733 411.131 323.035 408.087 324.586 406.375C324.586 406.375 327.773 406.282 327.043 408.8C327.043 408.806 327.77 408.785 332.444 408.274Z" fill="#2D313D"/>
<path d="M340.957 252.384L339.788 247.477L329.693 247.538L328.975 253.792C328.975 253.792 334.078 261.573 340.957 252.384Z" fill="#BA6549"/>
<path d="M324.309 233.791C324.309 233.791 324.385 239.002 324.566 241.783C324.747 244.563 325.091 250.94 330.44 251.48C335.788 252.021 338.619 249.068 340.497 247.741C340.497 247.741 346.467 241.458 345.462 239.668C344.458 237.877 343.213 232.365 337.923 232.763C332.633 233.16 324.309 233.791 324.309 233.791Z" fill="#FEB48C"/>
<path d="M340.253 247.966C340.253 247.966 346.936 241.891 348.455 238.052C349.974 234.214 349.79 231.433 347.906 229.707C347.906 229.707 349.547 227.724 350.429 227.662C350.429 227.662 347.783 227.855 346.962 228.845C346.962 228.845 347.66 226 346.72 225.139C346.72 225.139 346.843 226.991 346.022 227.984C346.022 227.984 342.826 219.831 337.597 221.143C332.369 222.454 323.869 227.735 322.037 226.935C322.037 226.935 322.978 227.811 324.742 227.671C323.073 228.361 321.311 228.803 319.514 228.983C319.514 228.983 320.702 233.557 327.876 234.895C335.05 236.233 340.279 234.924 340.279 234.924C340.279 234.924 338.941 241.543 340.007 244.271C340.007 244.271 341.526 240.436 343.288 240.307C345.049 240.179 343.472 243.088 342.651 244.079C341.83 245.069 339.371 248.031 340.253 247.966Z" fill="#221E52"/>
<path d="M342.958 251.547C342.958 251.547 344.737 257.267 343.796 257.93C342.856 258.593 338.46 261.009 338.46 261.009C338.46 261.009 340.761 264.201 340.761 265.852C340.761 267.502 323.922 288.971 323.922 288.971C323.922 288.971 319.213 265.741 320.259 264.642C321.305 263.544 323.075 261.561 323.075 261.561C323.075 261.561 321.614 256.937 323.075 255.838C324.535 254.74 328.835 253.636 328.835 253.636L330.824 255.389L340.867 249.777L342.958 251.547Z" fill="#F5F5F5"/>
<path d="M318.884 307.666C318.884 306.346 318.256 283.898 318.256 283.898C318.256 283.898 315.954 267.614 318.466 261.891C319.353 259.895 320.743 258.164 322.5 256.867C322.127 258.62 323.061 261.561 323.061 261.561C323.061 261.561 321.291 263.542 320.245 264.64C319.2 265.738 323.908 288.972 323.908 288.972L326.312 315.41L324.852 323.206C324.852 323.206 320.041 324.345 316.381 319.306C316.378 319.306 318.884 308.987 318.884 307.666Z" fill="#4484E0"/>
<path d="M323.564 316.251C323.564 316.251 322.334 289.67 321.341 285.055C320.841 282.718 321.227 279.82 321.732 277.504C322.766 283.346 323.905 288.972 323.905 288.972L326.309 315.41L324.849 323.206C322.922 323.521 320.947 323.117 319.299 322.07C321.116 320.453 322.569 318.47 323.564 316.251Z" fill="#286BCE"/>
<path d="M328.82 253.636L330.809 255.389L340.851 249.777L341.202 250.069L334.077 258.578L331.016 256.242L327.488 258.058L325.615 254.617C327.204 254.054 328.82 253.636 328.82 253.636Z" fill="#9BD4DF"/>
<path d="M328.646 260.047L327.91 257.854L331.03 256.25L333.714 258.295L331.187 261.195L329.54 274.296L324.709 287.957L323.92 288.965C323.92 288.965 323.788 288.314 323.578 287.242L328.646 260.047Z" fill="#DE3D73"/>
<path d="M324.695 287.963C331.028 269.143 343.121 252.148 343.121 252.148C343.547 253.635 344.535 257.406 343.781 257.926C342.838 258.589 338.444 261.008 338.444 261.008C338.444 261.008 340.746 264.2 340.746 265.851C340.746 267.285 328.011 283.71 324.695 287.963Z" fill="#68A9EA"/>
<path d="M320.246 264.634C321.291 263.536 323.061 261.556 323.061 261.556C323.061 261.556 321.601 256.932 323.061 255.833C323.858 255.321 324.717 254.913 325.617 254.621C325.55 260.013 323.281 285.739 323.281 285.741C322.025 279.327 319.442 265.481 320.246 264.634Z" fill="#68A9EA"/>
<path d="M323.907 288.971C323.907 288.971 340.746 267.501 340.746 265.851C340.746 264.201 338.445 261.008 338.445 261.008C338.445 261.008 342.826 258.589 343.781 257.926C344.736 257.263 342.943 251.547 342.943 251.547C342.943 251.547 349.848 254.57 354.554 258.589L353.181 287.42L351.218 299.98L353.832 321.064C353.832 321.064 336.972 324.832 327.558 322.524C327.558 322.524 322.221 293.314 323.162 290.998C323.288 290.709 323.542 290.002 323.907 288.971Z" fill="#4484E0"/>
<path d="M350.431 275.99C350.431 275.99 351.322 276.028 347.551 266.979L354.471 260.406L353.182 287.42L352.081 294.471L350.115 293.811L350.431 275.99Z" fill="#286BCE"/>
<path d="M350.163 294.46C350.163 294.302 350.163 294.08 350.125 293.809L353.198 287.289V287.418L351.235 299.978L354.562 322.177C354.562 322.177 348.326 322.315 340.039 322.96L344.312 313.155C344.312 313.155 350.163 297.101 350.163 294.46Z" fill="#286BCE"/>
<path d="M363.173 218.159C363.173 218.159 361.222 220.893 365.218 222.932C366.135 223.402 366.17 224.579 365.709 226.206L370.014 227.29C370.598 222.35 370.891 218.568 370.698 217.709C370.187 215.323 369.807 214.031 368.2 214.914C366.594 215.796 366.176 213.027 364.973 214.017C363.769 215.007 362.855 211.952 362.019 213.526C361.184 215.101 363.173 218.159 363.173 218.159Z" fill="#FBC0A4"/>
<path d="M371.024 227.247L371.41 224.273C371.41 224.273 367.82 222.567 364.499 223.265L364.137 226.043L371.024 227.247Z" fill="#F8E8D8"/>
<path d="M344.23 275.081C344.23 275.081 369.509 257.765 371.787 252.496C374.065 247.226 371.802 225.149 371.802 225.149L364.073 223.508L362.27 248.704C362.27 248.704 332.424 257.085 344.23 275.081Z" fill="#4484E0"/>
<path d="M370.551 242.435C369.525 250.41 368.766 251.546 368.766 251.546C367.273 255.148 347.562 272.752 347.551 272.761C354.485 267.869 370.025 256.576 371.795 252.495C373.606 248.31 372.552 233.509 372.04 227.617C371.728 231.4 371.193 237.423 370.551 242.435Z" fill="#286BCE"/>
<defs>
<clipPath id="clip0_5089_62292">
<rect width="86.8117" height="28.9372" fill="white" transform="translate(144.492 96.9219)"/>
</clipPath>
</defs>
</svg>
