<svg width="19" height="20" viewBox="0 0 19 20" fill="none" xmlns="http://www.w3.org/2000/svg">
<path d="M18 8.19H15.11C12.74 8.19 10.81 6.26 10.81 3.89V1C10.81 0.45 10.36 0 9.81 0H5.57C2.49 0 0 2 0 5.57V14.43C0 18 2.49 20 5.57 20H13.43C16.51 20 19 18 19 14.43V9.19C19 8.64 18.55 8.19 18 8.19ZM9.03 11.53C8.88 11.68 8.69 11.75 8.5 11.75C8.31 11.75 8.12 11.68 7.97 11.53L7.25 10.81V15C7.25 15.41 6.91 15.75 6.5 15.75C6.09 15.75 5.75 15.41 5.75 15V10.81L5.03 11.53C4.74 11.82 4.26 11.82 3.97 11.53C3.68 11.24 3.68 10.76 3.97 10.47L5.97 8.47C6.04 8.41 6.11 8.36 6.19 8.32C6.21 8.31 6.24 8.3 6.26 8.29C6.32 8.27 6.38 8.26 6.45 8.25C6.48 8.25 6.5 8.25 6.53 8.25C6.61 8.25 6.69 8.27 6.77 8.3C6.78 8.3 6.78 8.3 6.79 8.3C6.87 8.33 6.95 8.39 7.01 8.45C7.02 8.46 7.03 8.46 7.03 8.47L9.03 10.47C9.32 10.76 9.32 11.24 9.03 11.53Z" fill="#FEBD09"/>
<path d="M14.9297 6.80999C15.8797 6.81999 17.1997 6.81999 18.3297 6.81999C18.8997 6.81999 19.1997 6.14999 18.7997 5.74999C17.3597 4.29999 14.7797 1.68999 13.2997 0.209993C12.8897 -0.200007 12.1797 0.0799931 12.1797 0.649993V4.13999C12.1797 5.59999 13.4197 6.80999 14.9297 6.80999Z" fill="#FEBD09"/>
</svg>
