<svg width="215" height="72" viewBox="0 0 215 72" fill="none" xmlns="http://www.w3.org/2000/svg">
<g clip-path="url(#clip0_4656_59548)">
<path d="M47.0021 14.724C46.6027 12.9204 45.8395 11.2148 44.7581 9.7093C43.6768 8.20377 42.2996 6.92915 40.7087 5.9616L42.0052 4.68C42.2664 4.77548 42.5426 4.82424 42.821 4.824H42.8647C43.1842 4.82401 43.5004 4.76148 43.7953 4.64C44.0901 4.51852 44.3577 4.34051 44.5825 4.11625C44.8074 3.89199 44.9851 3.62592 45.1053 3.33341C45.2255 3.04089 45.286 2.72773 45.2831 2.412C45.2489 1.79228 44.9757 1.20905 44.5198 0.782303C44.0639 0.355555 43.4599 0.117729 42.832 0.117729C42.2041 0.117729 41.6 0.355555 41.1441 0.782303C40.6882 1.20905 40.4151 1.79228 40.3809 2.412C40.3802 2.71029 40.4371 3.00596 40.5484 3.2832L38.8148 4.98959C37.1157 4.2864 35.2921 3.92427 33.45 3.92427C31.608 3.92427 29.7844 4.2864 28.0853 4.98959L26.3517 3.2832C26.463 3.00596 26.5199 2.71029 26.5192 2.412C26.5192 1.7723 26.2621 1.15879 25.8045 0.706454C25.3469 0.254116 24.7262 1.99248e-09 24.079 1.99248e-09H24.0353C23.7159 -1.28886e-05 23.3996 0.0625217 23.1048 0.183999C22.8099 0.305476 22.5424 0.483488 22.3175 0.70775C22.0927 0.932012 21.915 1.19809 21.7948 1.4906C21.6745 1.78312 21.6141 2.09628 21.617 2.412C21.6228 3.05368 21.8847 3.66715 22.3458 4.11887C22.8069 4.5706 23.4298 4.82402 24.079 4.824C24.3575 4.82424 24.6337 4.77548 24.8948 4.68L26.1914 5.9616C24.6005 6.92915 23.2232 8.20377 22.1419 9.7093C21.0606 11.2148 20.2974 12.9204 19.8979 14.724C19.8279 15.0739 19.8373 15.4347 19.9253 15.7806C20.0134 16.1265 20.1779 16.4487 20.4071 16.7242C20.6363 16.9996 20.9245 17.2214 21.2508 17.3735C21.5772 17.5257 21.9336 17.6044 22.2944 17.604C22.847 17.6071 23.3841 17.4231 23.8161 17.0825C24.2482 16.7419 24.5492 16.2653 24.669 15.732C25.1005 13.7466 26.2075 11.9675 27.8054 10.6913C29.4034 9.41505 31.3957 8.71889 33.45 8.71889C35.5044 8.71889 37.4967 9.41505 39.0946 10.6913C40.6926 11.9675 41.7996 13.7466 42.231 15.732C42.3509 16.2653 42.6519 16.7419 43.0839 17.0825C43.516 17.4231 44.053 17.6071 44.6057 17.604C44.9665 17.6044 45.3229 17.5257 45.6492 17.3735C45.9756 17.2214 46.2637 16.9996 46.4929 16.7242C46.7221 16.4487 46.8867 16.1265 46.9747 15.7806C47.0628 15.4347 47.0721 15.0739 47.0021 14.724Z" fill="#FEBD09"/>
<path d="M62.7351 25.7974H4.16354C3.19761 25.7974 2.27124 26.1766 1.58822 26.8518C0.905203 27.5269 0.521484 28.4426 0.521484 29.3974C0.521484 30.3521 0.905203 31.2678 1.58822 31.9429C2.27124 32.6181 3.19761 32.9974 4.16354 32.9974H62.7351C63.701 32.9974 64.6274 32.6181 65.3104 31.9429C65.9934 31.2678 66.3772 30.3521 66.3772 29.3974C66.3772 28.4426 65.9934 27.5269 65.3104 26.8518C64.6274 26.1766 63.701 25.7974 62.7351 25.7974Z" fill="#FEBD09"/>
<path d="M56.0269 38.7866H10.8653C9.89458 38.7866 8.96358 39.1678 8.27714 39.8463C7.59071 40.5248 7.20508 41.4451 7.20508 42.4046C7.20508 43.3642 7.59071 44.2844 8.27714 44.9629C8.96358 45.6414 9.89458 46.0226 10.8653 46.0226H56.0269C56.9976 46.0226 57.9286 45.6414 58.615 44.9629C59.3015 44.2844 59.6871 43.3642 59.6871 42.4046C59.6871 41.4451 59.3015 40.5248 58.615 39.8463C57.9286 39.1678 56.9976 38.7866 56.0269 38.7866Z" fill="#FEBD09"/>
<path d="M48.2981 51.7754H18.6372C17.6712 51.7754 16.7449 52.1547 16.0618 52.8298C15.3788 53.5049 14.9951 54.4206 14.9951 55.3754C14.9951 56.3302 15.3788 57.2458 16.0618 57.921C16.7449 58.5961 17.6712 58.9754 18.6372 58.9754H31.836V65.1026C31.0788 65.4518 30.4661 66.0477 30.1007 66.7904C29.7352 67.5331 29.6392 68.3774 29.8288 69.1818C30.0183 69.9861 30.4819 70.7016 31.1418 71.2082C31.8017 71.7148 32.6177 71.9817 33.4531 71.9642H33.4968C34.3273 71.9729 35.136 71.7007 35.7886 71.1927C36.4411 70.6848 36.8985 69.9716 37.0847 69.1715C37.2709 68.3713 37.1748 67.5323 36.8124 66.7936C36.4499 66.0548 35.8429 65.4607 35.092 65.1098V59.0402H48.3345C49.3004 59.0402 50.2268 58.6609 50.9098 57.9858C51.5928 57.3106 51.9766 56.395 51.9766 55.4402C51.9766 54.4854 51.5928 53.5697 50.9098 52.8946C50.2268 52.2195 49.3004 51.8402 48.3345 51.8402L48.2981 51.7754Z" fill="#FEBD09"/>
<path d="M109.238 15.4297V41.9473H102.682V30.8809H92.4843V41.9473H85.9941V15.4297H92.4843V25.7041H102.682V15.4297H109.238Z" fill="#212121"/>
<path d="M135.388 15.4297V41.9473H128.897V15.4297H135.388Z" fill="#212121"/>
<path d="M160.051 15.4297L166.607 35.3809L173.163 15.4297H180.104L170.766 41.9473H162.404L153.109 15.4297H160.051Z" fill="#212121"/>
<path d="M204.294 20.5273V26.0785H213.363V30.9169H204.294V36.8065H214.492V41.9473H197.826V15.4297H214.507V20.5273H204.294Z" fill="#212121"/>
<path d="M90.517 51.3576C90.9836 51.7196 91.3123 52.2272 91.4494 52.7976H90.4733C90.3496 52.4695 90.1256 52.1877 89.8323 51.9912C89.5161 51.7824 89.1417 51.6767 88.7616 51.6888C88.4399 51.6851 88.124 51.7726 87.8511 51.9408C87.5773 52.1171 87.36 52.3669 87.2246 52.6608C87.0659 52.9936 86.9886 53.3587 86.9988 53.7264C86.9902 54.0941 87.0674 54.4587 87.2246 54.792C87.362 55.0847 87.5788 55.334 87.8511 55.512C88.126 55.6749 88.4411 55.7596 88.7616 55.7568C89.1417 55.769 89.5161 55.6633 89.8323 55.4544C90.1254 55.261 90.3496 54.9814 90.4733 54.6552H91.4785C91.3431 55.2263 91.0141 55.7345 90.5462 56.0952C90.0825 56.4039 89.5425 56.5818 88.9842 56.6097C88.4258 56.6376 87.8704 56.5145 87.3776 56.2536C86.968 56.0122 86.6369 55.6599 86.4234 55.2384C86.1981 54.7757 86.0811 54.2688 86.0811 53.7552C86.0811 53.2417 86.1981 52.7348 86.4234 52.272C86.6369 51.8506 86.968 51.4983 87.3776 51.2568C87.8187 51.0018 88.3236 50.8745 88.8344 50.8896C89.4313 50.865 90.0207 51.0289 90.517 51.3576Z" fill="#212121"/>
<path d="M99.6437 51.1849C100.07 51.4266 100.421 51.7806 100.656 52.2074C100.896 52.6659 101.021 53.1745 101.021 53.6906C101.021 54.2066 100.896 54.7152 100.656 55.1738C100.421 55.6025 100.071 55.9588 99.6437 56.2033C99.2068 56.4469 98.7138 56.5748 98.2123 56.5748C97.7108 56.5748 97.2178 56.4469 96.781 56.2033C96.3541 55.9588 96.0037 55.6025 95.7685 55.1738C95.5248 54.7165 95.3975 54.2074 95.3975 53.6906C95.3975 53.1737 95.5248 52.6646 95.7685 52.2074C96.0039 51.7806 96.3543 51.4266 96.781 51.1849C97.2178 50.9414 97.7108 50.8135 98.2123 50.8135C98.7138 50.8135 99.2068 50.9414 99.6437 51.1849ZM97.2472 51.9049C96.9578 52.0755 96.7249 52.3257 96.577 52.6249C96.4213 52.9642 96.3407 53.3324 96.3407 53.7049C96.3407 54.0775 96.4213 54.4457 96.577 54.7849C96.7249 55.0842 96.9578 55.3344 97.2472 55.5049C97.5429 55.6689 97.8769 55.7533 98.216 55.7497C98.5528 55.7545 98.8848 55.6699 99.1775 55.5049C99.4647 55.334 99.6951 55.0837 99.8403 54.7849C100.001 54.447 100.084 54.0783 100.084 53.7049C100.084 53.3316 100.001 52.9629 99.8403 52.6249C99.6951 52.3262 99.4647 52.0759 99.1775 51.9049C98.8848 51.74 98.5528 51.6554 98.216 51.6601C97.8769 51.6566 97.5429 51.741 97.2472 51.9049Z" fill="#212121"/>
<path d="M109.761 56.5058H108.844L106.083 52.3586V56.5058H105.165V50.897H106.083L108.844 55.0586V50.897H109.761V56.5058Z" fill="#212121"/>
<path d="M118.692 56.5058H117.774L115.014 52.3586V56.5058H114.096V50.897H115.014L117.774 55.0586V50.897H118.692V56.5058Z" fill="#212121"/>
<path d="M123.944 51.6242V53.3234H126.035V54.0434H123.944V55.793H126.275V56.513H123.026V50.897H126.275V51.617L123.944 51.6242Z" fill="#212121"/>
<path d="M134.666 51.3577C135.133 51.7196 135.461 52.2273 135.598 52.7977H134.622C134.501 52.4681 134.277 52.1855 133.981 51.9913C133.665 51.7824 133.291 51.6767 132.911 51.6889C132.591 51.6849 132.278 51.7724 132.007 51.9409C131.73 52.1146 131.509 52.3649 131.374 52.6609C131.215 52.9937 131.138 53.3587 131.148 53.7265C131.139 54.0941 131.216 54.4588 131.374 54.7921C131.509 55.0807 131.726 55.3241 131.999 55.4929C132.272 55.6616 132.589 55.7483 132.911 55.7425C133.291 55.7547 133.665 55.6489 133.981 55.4401C134.277 55.2489 134.501 54.9686 134.622 54.6409H135.598C135.463 55.212 135.134 55.7201 134.666 56.0809C134.202 56.3896 133.662 56.5675 133.104 56.5954C132.546 56.6233 131.99 56.5002 131.497 56.2393C131.09 55.9957 130.759 55.644 130.543 55.2241C130.322 54.7601 130.208 54.2537 130.208 53.7409C130.208 53.2281 130.322 52.7217 130.543 52.2577C130.759 51.8378 131.09 51.4861 131.497 51.2425C131.939 50.9874 132.443 50.8602 132.954 50.8753C133.563 50.8486 134.163 51.0179 134.666 51.3577Z" fill="#212121"/>
<path d="M143.393 50.8896V51.6096H141.805V56.4912H140.879V51.6241H139.299V50.9041L143.393 50.8896Z" fill="#212121"/>
<path d="M156.381 56.5058L155.317 55.325C155.297 55.4179 155.27 55.5094 155.237 55.5986C155.166 55.8884 154.993 56.1437 154.749 56.3186C154.49 56.5009 154.178 56.5944 153.86 56.585C153.541 56.5923 153.224 56.5179 152.942 56.369C152.685 56.2318 152.472 56.0244 152.331 55.7714C152.182 55.505 152.106 55.2045 152.112 54.9002C152.104 54.5982 152.171 54.2989 152.309 54.029C152.431 53.7971 152.618 53.6047 152.848 53.4746C153.069 53.3477 153.32 53.2807 153.576 53.2802H153.634L153.532 53.1362C153.412 52.9946 153.311 52.8371 153.234 52.6682C153.159 52.5004 153.122 52.3187 153.125 52.1354C153.124 51.9148 153.184 51.6982 153.299 51.509C153.425 51.3073 153.604 51.1431 153.816 51.0338C154.07 50.9106 154.35 50.8489 154.632 50.8538C155.024 50.8288 155.411 50.9495 155.718 51.1922C155.966 51.412 156.131 51.7094 156.184 52.0346C156.237 52.2169 156.257 52.4071 156.242 52.5962H155.375V52.5098C155.375 52.4306 155.375 52.373 155.375 52.337C155.379 52.1436 155.309 51.956 155.179 51.8114C155.109 51.7464 155.026 51.6958 154.936 51.6624C154.846 51.629 154.75 51.6136 154.654 51.617C154.567 51.6108 154.479 51.6237 154.397 51.6549C154.315 51.686 154.241 51.7345 154.181 51.797C154.124 51.8525 154.079 51.9187 154.049 51.9917C154.019 52.0647 154.004 52.143 154.006 52.2218C154.003 52.351 154.031 52.4791 154.086 52.5962C154.162 52.7285 154.25 52.8538 154.348 52.9706L157.313 56.5274L156.381 56.5058ZM154.516 55.5482C154.6 55.4641 154.666 55.364 154.71 55.2538C154.754 55.1436 154.775 55.0258 154.771 54.9074C154.772 54.7336 154.721 54.5633 154.625 54.4178C154.533 54.275 154.405 54.1583 154.254 54.0794C154.11 53.9951 153.947 53.9504 153.78 53.9498C153.664 53.9453 153.548 53.964 153.439 54.0049C153.33 54.0457 153.23 54.1078 153.146 54.1874C152.979 54.3743 152.887 54.615 152.887 54.8642C152.887 55.1135 152.979 55.3542 153.146 55.541C153.334 55.7076 153.579 55.7976 153.831 55.793C153.956 55.801 154.081 55.7833 154.199 55.7412C154.317 55.6991 154.425 55.6334 154.516 55.5482Z" fill="#212121"/>
<path d="M170.519 51.3574C170.985 51.7194 171.314 52.227 171.451 52.7974H170.475C170.351 52.4693 170.127 52.1875 169.834 51.991C169.518 51.7822 169.143 51.6764 168.763 51.6886C168.442 51.6849 168.126 51.7723 167.853 51.9406C167.579 52.1169 167.362 52.3667 167.226 52.6606C167.068 52.9934 166.99 53.3584 167.001 53.7262C166.992 54.0939 167.069 54.4585 167.226 54.7918C167.364 55.0845 167.581 55.3338 167.853 55.5118C168.128 55.6747 168.443 55.7594 168.763 55.7566C169.143 55.7688 169.518 55.6631 169.834 55.4542C170.127 55.2607 170.351 54.9812 170.475 54.655H171.451C171.316 55.2261 170.987 55.7343 170.519 56.095C170.055 56.4037 169.515 56.5816 168.957 56.6095C168.398 56.6374 167.843 56.5143 167.35 56.2534C166.941 56.012 166.61 55.6597 166.396 55.2382C166.171 54.7755 166.054 54.2686 166.054 53.755C166.054 53.2415 166.171 52.7346 166.396 52.2718C166.61 51.8504 166.941 51.4981 167.35 51.2566C167.791 51.0016 168.296 50.8743 168.807 50.8894C169.414 50.8585 170.014 51.0227 170.519 51.3574Z" fill="#212121"/>
<path d="M179.616 51.1849C180.043 51.4266 180.393 51.7806 180.629 52.2074C180.868 52.6659 180.993 53.1745 180.993 53.6906C180.993 54.2066 180.868 54.7152 180.629 55.1738C180.394 55.6025 180.043 55.9588 179.616 56.2033C179.18 56.4469 178.687 56.5748 178.185 56.5748C177.683 56.5748 177.19 56.4469 176.754 56.2033C176.327 55.9588 175.976 55.6025 175.741 55.1738C175.497 54.7165 175.37 54.2074 175.37 53.6906C175.37 53.1737 175.497 52.6646 175.741 52.2074C175.977 51.7806 176.327 51.4266 176.754 51.1849C177.19 50.9414 177.683 50.8135 178.185 50.8135C178.687 50.8135 179.18 50.9414 179.616 51.1849ZM177.22 51.9049C176.929 52.0735 176.695 52.3242 176.55 52.6249C176.394 52.9642 176.313 53.3324 176.313 53.7049C176.313 54.0775 176.394 54.4457 176.55 54.7849C176.695 55.0857 176.929 55.3364 177.22 55.5049C177.516 55.6689 177.85 55.7533 178.189 55.7497C178.526 55.7545 178.857 55.6699 179.15 55.5049C179.437 55.334 179.668 55.0837 179.813 54.7849C179.973 54.447 180.057 54.0783 180.057 53.7049C180.057 53.3316 179.973 52.9629 179.813 52.6249C179.668 52.3262 179.437 52.0759 179.15 51.9049C178.857 51.74 178.526 51.6554 178.189 51.6601C177.859 51.6615 177.536 51.7458 177.249 51.9049H177.22Z" fill="#212121"/>
<path d="M191.06 50.9761V56.5057H190.135V52.3585L188.518 56.5057H187.709L186.085 52.3585V56.5057H185.167V50.9761H186.281L188.132 55.3969L189.953 50.9761H191.06Z" fill="#212121"/>
<path d="M201.28 50.9761V56.5057H200.354V52.3585L198.73 56.5057H197.929L196.305 52.3585V56.5057H195.387V50.9761H196.494L198.344 55.3969L200.165 50.9761H201.28Z" fill="#212121"/>
<path d="M206.516 50.8896V56.5057H205.599V50.8896H206.516Z" fill="#212121"/>
<path d="M214.508 50.8896V51.6096H212.92V56.4912H211.995V51.6241H210.414V50.9041L214.508 50.8896Z" fill="#212121"/>
</g>
<defs>
<clipPath id="clip0_4656_59548">
<rect width="214" height="72" fill="white" transform="translate(0.5)"/>
</clipPath>
</defs>
</svg>
