<svg width="300" height="291" viewBox="0 0 300 291" fill="none" xmlns="http://www.w3.org/2000/svg">
<g clip-path="url(#clip0_208_55)">
<g opacity="0.35">
<path d="M12.6335 139.337C12.6335 122.409 27.3474 108.693 45.4948 108.693H52.3499C49.1434 106.104 47.1119 102.284 47.1119 98.0175C47.1119 90.223 53.8833 83.9032 62.248 83.9032H85.0676C82.7597 82.0514 81.2836 79.3228 81.2836 76.2518C81.2836 70.6753 86.1333 66.1523 92.1163 66.1523H149.412C155.387 66.1523 160.246 70.6732 160.246 76.2518C160.246 81.8305 155.394 86.3509 149.412 86.3509H127.977C123.982 88.8921 121.359 93.1705 121.359 98.0175C121.359 102.284 123.39 106.104 126.597 108.693H161.881C180.033 108.693 194.743 122.413 194.743 139.337C194.743 156.266 180.027 169.982 161.881 169.982H208.624C216.989 169.982 223.76 176.301 223.76 184.096C223.76 191.892 216.989 198.213 208.624 198.213H227.662C248.469 198.213 265.743 212.277 269.172 230.765H275.858C288.833 230.765 299.359 240.572 299.359 252.673V254.894C299.359 266.99 288.841 276.801 275.858 276.801H54.7915C31.5178 276.801 12.6514 259.21 12.6514 237.511C12.6514 215.802 31.5178 198.221 54.7915 198.221H128.564C120.199 198.221 113.428 191.901 113.428 184.105C113.428 176.307 120.199 169.99 128.564 169.99H45.5147C27.3474 169.982 12.6335 156.262 12.6335 139.337Z" fill="#FEBD09" fill-opacity="0.2"/>
<path d="M180.13 86.3509C174.697 86.3509 170.29 81.8305 170.29 76.2518C170.29 70.6732 174.697 66.1523 180.13 66.1523C185.563 66.1523 189.972 70.6732 189.972 76.2518C189.972 81.8305 185.565 86.3509 180.13 86.3509Z" fill="#ABE9FF"/>
</g>
<path opacity="0.15" d="M149.545 290.181C231.782 290.181 298.448 286.557 298.448 282.085C298.448 277.615 231.782 273.99 149.545 273.99C67.3081 273.99 0.641846 277.615 0.641846 282.085C0.641846 286.557 67.3081 290.181 149.545 290.181Z" fill="#231F20"/>
<path d="M207.813 40.8575C217.179 37.3722 221.894 26.8134 218.345 17.2736C214.795 7.73399 204.325 2.82588 194.958 6.31112C185.592 9.79635 180.876 20.3551 184.426 29.8949C187.975 39.4346 198.446 44.3426 207.813 40.8575Z" fill="#212121"/>
<path d="M206.873 41.069C216.768 38.6791 222.851 28.7208 220.461 18.8267C218.071 8.93256 208.113 2.84923 198.219 5.23922C188.324 7.62919 182.241 17.5875 184.631 27.4816C187.021 37.3758 196.979 43.459 206.873 41.069Z" fill="white"/>
<path d="M208.216 36.2383C215.532 33.1191 218.935 24.6595 215.815 17.3431C212.697 10.0266 204.237 6.62411 196.92 9.74334C189.604 12.8625 186.201 21.3222 189.32 28.6386C192.44 35.955 200.9 39.3575 208.216 36.2383Z" fill="#212121"/>
<path d="M204.507 33.6379C210.368 32.5719 214.254 26.9573 213.188 21.0974C212.122 15.2375 206.507 11.3512 200.648 12.4172C194.787 13.4832 190.901 19.0978 191.967 24.9577C193.033 30.8177 198.648 34.7039 204.507 33.6379Z" fill="#FFCA32"/>
<path d="M203.058 29.8913C206.828 29.6105 209.656 26.3267 209.376 22.5567C209.095 18.7867 205.811 15.9582 202.041 16.2389C198.271 16.5198 195.442 19.8036 195.723 23.5736C196.004 27.3436 199.287 30.1722 203.058 29.8913Z" fill="#FCFFFB"/>
<path d="M205.521 21.8211C205.77 22.4102 205.84 23.0601 205.719 23.6884C205.599 24.3168 205.295 24.8954 204.846 25.3512C204.397 25.8069 203.823 26.1193 203.197 26.2488C202.57 26.3783 201.92 26.3191 201.327 26.0786C200.734 25.8382 200.225 25.4273 199.866 24.8981C199.507 24.3688 199.312 23.7449 199.308 23.1051C199.304 22.4654 199.488 21.8386 199.84 21.3042C200.191 20.7697 200.694 20.3514 201.283 20.1023C202.072 19.7689 202.963 19.7626 203.757 20.0849C204.552 20.4072 205.186 21.0316 205.521 21.8211Z" fill="#212121"/>
<path d="M205.523 22.2486L202.047 22.7405L203.778 19.6037L204.26 20.6254L219.647 10.0919L220.246 7.16429L225.704 3.05762L225.128 6.57874L228.991 7.01688L222.554 11.1216L220.541 10.7432L204.593 21.2069L205.523 22.2486Z" fill="#FFCA32"/>
<path opacity="0.13" d="M219.873 9.82884L224.943 6.5766L225.475 3.31836L220.427 7.11834L219.873 9.82884Z" fill="white"/>
<path d="M221.817 121.083C221.86 119.204 221.564 117.332 220.947 115.557L224.988 111.972L222.341 107.701L217.362 109.723C216.045 108.359 214.493 107.245 212.781 106.432L213.104 101.056L208.214 99.9102L206.111 104.889C204.233 104.871 202.367 105.188 200.6 105.827L196.992 101.765L192.723 104.412L194.795 109.518C193.493 110.813 192.428 112.327 191.646 113.989L186.09 113.654L184.945 118.546L190.133 120.736C190.128 122.532 190.431 124.317 191.029 126.01L186.787 129.77L189.423 134.028L194.699 131.887C195.949 133.155 197.405 134.201 199.005 134.98L198.663 140.667L203.552 141.813L205.758 136.591C207.555 136.619 209.343 136.337 211.045 135.759L214.777 139.971L219.044 137.324L216.953 132.168C218.279 130.895 219.372 129.399 220.182 127.749L225.678 128.082L226.824 123.19L221.817 121.083ZM210.156 127.496C208.823 128.323 207.274 128.737 205.706 128.684C204.138 128.631 202.62 128.114 201.346 127.199C200.071 126.284 199.096 125.011 198.544 123.543C197.993 122.073 197.89 120.474 198.247 118.946C198.605 117.418 199.407 116.03 200.553 114.959C201.7 113.887 203.138 113.179 204.686 112.924C206.234 112.67 207.823 112.88 209.252 113.529C210.681 114.177 211.885 115.235 212.714 116.568C213.822 118.355 214.175 120.51 213.695 122.557C213.216 124.605 211.943 126.378 210.156 127.488V127.496Z" fill="#E7E2D6"/>
<path d="M186.083 113.644L187.736 113.743L187.991 112.654L186.083 113.644Z" fill="#A9CEEA"/>
<path d="M194.628 94.8874C194.628 94.8874 194.733 94.5192 194.947 93.8913L193.927 93.5449C193.698 94.2145 193.593 94.597 193.593 94.597L194.628 94.8874Z" fill="#92BFF7"/>
<path d="M194.694 91.4731C194.962 90.7981 195.255 90.1129 195.562 89.4379L196.542 89.8838C196.243 90.5431 195.957 91.2141 195.693 91.8754L194.694 91.4731ZM196.52 87.4463C196.852 86.7911 197.205 86.1359 197.566 85.4984L198.502 86.0281C198.149 86.6513 197.804 87.2929 197.48 87.9338L196.52 87.4463ZM198.701 83.6002C199.099 82.9709 199.512 82.3518 199.93 81.7579L200.81 82.3797C200.412 82.9572 199.999 83.5606 199.615 84.1722L198.701 83.6002ZM201.254 79.9838C201.714 79.3981 202.194 78.8268 202.676 78.2827L203.472 78.9979C203.005 79.5256 202.538 80.0813 202.09 80.6506L201.254 79.9838ZM204.2 76.6716C204.73 76.1459 205.275 75.6379 205.827 75.16L206.532 75.9747C206 76.435 205.47 76.9265 204.958 77.4365L204.2 76.6716ZM207.555 73.7656C208.153 73.3177 208.768 72.8936 209.386 72.5015L209.963 73.4111C209.366 73.7881 208.768 74.1959 208.201 74.6281L207.555 73.7656ZM211.31 71.3861C211.967 71.0397 212.644 70.7186 213.321 70.4322L213.741 71.4277C213.092 71.7025 212.443 72.0113 211.812 72.3441L211.31 71.3861ZM215.406 69.6495C216.107 69.4204 216.828 69.2172 217.549 69.0516L217.796 70.0995C217.105 70.2625 216.414 70.4561 215.741 70.677L215.406 69.6495ZM248.881 76.8965L249.194 75.867C249.791 76.0504 250.405 76.2195 250.986 76.3647L251.263 76.4329L251.01 77.4802L250.725 77.4106C250.126 77.2688 249.502 77.0861 248.881 76.8965ZM219.732 68.6275C220.459 68.5184 221.202 68.4284 221.943 68.3868L222.016 69.462C221.303 69.5097 220.589 69.5875 219.891 69.6931L219.732 68.6275ZM253.372 76.8706C254.085 76.9941 254.8 77.0916 255.495 77.1638L255.387 78.235C254.667 78.1613 253.925 78.0597 253.197 77.9322L253.372 76.8706ZM244.724 75.3952L245.139 74.3991C245.812 74.68 246.489 74.9452 247.15 75.1838L246.781 76.1977C246.104 75.9529 245.414 75.6761 244.724 75.3952ZM257.632 77.2947C258.351 77.3111 259.07 77.2947 259.767 77.2511L259.837 78.325C259.108 78.3727 258.359 78.3884 257.608 78.3727L257.632 77.2947ZM241.918 74.1243C241.52 73.9293 241.127 73.7411 240.739 73.5611L241.191 72.5847C241.589 72.7681 241.988 72.9584 242.386 73.1568L243.159 73.527L242.701 74.5006L241.918 74.1243ZM224.161 68.3186C224.89 68.3186 225.635 68.3568 226.378 68.4147L226.294 69.4879C225.577 69.432 224.856 69.4006 224.153 69.3965L224.161 68.3186ZM236.748 71.9036L237.123 70.8918C237.8 71.1427 238.49 71.4161 239.174 71.7004L238.76 72.6966C238.088 72.4095 237.419 72.1429 236.748 71.892V71.9036ZM228.582 68.6656C229.3 68.7693 230.032 68.8968 230.761 69.0481L230.545 70.1016C229.835 69.9563 229.124 69.8302 228.429 69.7306L228.582 68.6656ZM261.886 77.0179C262.586 76.9061 263.28 76.7581 263.965 76.574L264.246 77.6159C263.524 77.8075 262.793 77.9636 262.055 78.0815L261.886 77.0179ZM232.64 70.589L232.915 69.55C233.611 69.7327 234.325 69.9481 235.037 70.167L234.708 71.1945C234.014 70.9715 233.317 70.7684 232.64 70.589ZM265.981 75.9086C266.639 75.6516 267.283 75.357 267.908 75.0263L268.413 75.9788C267.751 76.3286 267.069 76.6395 266.371 76.9109L265.981 75.9086ZM269.721 73.9293C270.303 73.5284 270.86 73.0934 271.39 72.627L272.101 73.4234C271.539 73.9184 270.948 74.38 270.332 74.8054L269.721 73.9293ZM272.894 71.1413C273.365 70.6143 273.807 70.0606 274.216 69.4838L275.094 70.1077C274.663 70.7179 274.198 71.3029 273.7 71.86L272.894 71.1413ZM275.341 67.6876C275.684 67.0676 275.992 66.4293 276.265 65.7757L277.261 66.1919C276.972 66.8807 276.646 67.5535 276.285 68.2075L275.341 67.6876ZM276.986 63.7741C277.09 63.4355 277.185 63.095 277.269 62.7485C277.353 62.4019 277.432 62.0574 277.502 61.7088L278.56 61.918C278.485 62.2844 278.403 62.6482 278.315 63.0093C278.223 63.3718 278.125 63.7323 278.016 64.0868L276.986 63.7741ZM277.93 57.4707H279.007C279.007 58.2156 278.96 58.9664 278.886 59.6993L277.815 59.5918C277.885 58.8908 277.922 58.1738 277.928 57.4628L277.93 57.4707ZM277.584 53.2187L278.645 53.0354C278.771 53.7684 278.864 54.5132 278.924 55.2481L277.85 55.3358C277.79 54.6228 277.701 53.9118 277.582 53.2107L277.584 53.2187ZM276.508 49.0842L277.526 48.7276C277.771 49.4267 277.99 50.1436 278.175 50.8586L277.134 51.1295C276.952 50.4364 276.743 49.7473 276.506 49.0762L276.508 49.0842ZM274.767 45.1806L275.714 44.6648C276.068 45.316 276.401 45.9872 276.709 46.6564L275.725 47.0965C275.427 46.4433 275.108 45.802 274.766 45.1726L274.767 45.1806ZM272.431 41.5958L273.286 40.9405C273.738 41.538 274.17 42.1355 274.57 42.7548L273.668 43.3523C273.282 42.7449 272.87 42.1554 272.429 41.5878L272.431 41.5958ZM269.583 38.3953L270.334 37.6225C270.866 38.1404 271.382 38.6801 271.87 39.2277L271.073 39.9447C270.593 39.409 270.093 38.8872 269.581 38.3873L269.583 38.3953ZM266.313 35.619L266.954 34.7527C267.552 35.1948 268.134 35.6588 268.691 36.1308L267.994 36.9514C267.453 36.4874 266.895 36.0432 266.311 35.611L266.313 35.619ZM262.709 33.2769L263.24 32.3408C263.887 32.7073 264.523 33.0936 265.135 33.49L264.547 34.3921C263.953 33.9998 263.334 33.6254 262.713 33.2689L262.709 33.2769Z" fill="#212121"/>
<path d="M253.612 32.8952L246.95 23.0029L265.193 26.6854L260.622 27.7389L257.993 29.362L253.612 32.8952Z" fill="#FFCA32"/>
<path d="M249.643 24.332L260.622 27.7396L260.815 32.7047L257.993 29.3628L249.643 24.332Z" fill="#EBB92C"/>
<path d="M65.3783 75.2595C65.0145 75.164 64.6559 75.0672 64.3027 74.9704L64.5956 73.9033L65.6591 74.1897L65.3783 75.2595Z" fill="#B7D8F9"/>
<path d="M69.9989 153.701L69.1623 154.518C69.1623 154.518 68.8732 154.221 68.3496 153.673L69.1964 152.877C69.7119 153.407 69.9969 153.699 69.9989 153.701Z" fill="#B7D8F9"/>
<path d="M68.7478 283.882L184.923 283.772C190.96 283.772 195.851 279.064 195.846 273.269L195.63 55.8904C195.63 49.9395 190.596 45.1218 184.398 45.1358L68.8017 45.2453C62.6039 45.2453 57.5851 50.0789 57.5911 56.0278L57.8041 273.406C57.8101 279.194 62.7095 283.888 68.7478 283.882Z" fill="#212121"/>
<path d="M72.8013 281.746L183.569 281.642C189.345 281.642 194.016 277.062 194.009 271.428L193.81 59.5684C193.81 53.7927 188.997 49.0986 183.074 49.1045L72.8551 49.2081C66.932 49.2081 62.1341 53.9082 62.1401 59.6918L62.3393 271.553C62.3452 277.187 67.0295 281.752 72.8013 281.746Z" fill="#E5E6EB"/>
<path d="M187.379 56.6719L68.5908 56.7963L68.8158 271.872L187.604 271.748L187.379 56.6719Z" fill="#E5E6EB"/>
<mask id="mask0_208_55" style="mask-type:luminance" maskUnits="userSpaceOnUse" x="98" y="66" width="60" height="20">
<path d="M157.707 66.083H98.5173V85.8129H157.707V66.083Z" fill="white"/>
</mask>
<g mask="url(#mask0_208_55)">
<path d="M111.379 70.1181C111.269 69.6238 111.057 69.156 110.758 68.7435C110.459 68.331 110.078 67.9817 109.638 67.7166L109.997 67.3654C110.069 67.3916 110.146 67.405 110.223 67.4049H110.234C110.323 67.4049 110.41 67.3877 110.492 67.3545C110.573 67.3212 110.647 67.2724 110.71 67.2109C110.772 67.1495 110.821 67.0766 110.854 66.9964C110.887 66.9163 110.905 66.8305 110.903 66.744C110.894 66.5741 110.819 66.4143 110.692 66.2974C110.566 66.1804 110.399 66.1153 110.225 66.1153C110.052 66.1153 109.885 66.1804 109.758 66.2974C109.632 66.4143 109.557 66.5741 109.548 66.744C109.547 66.8257 109.563 66.9067 109.594 66.9827L109.114 67.4503C108.644 67.2576 108.14 67.1584 107.63 67.1584C107.121 67.1584 106.617 67.2576 106.147 67.4503L105.667 66.9827C105.698 66.9067 105.714 66.8257 105.714 66.744C105.714 66.5687 105.642 66.4005 105.516 66.2766C105.389 66.1526 105.217 66.083 105.039 66.083H105.027C104.938 66.083 104.851 66.1001 104.77 66.1334C104.688 66.1667 104.613 66.2155 104.551 66.2769C104.489 66.3384 104.44 66.4113 104.407 66.4915C104.373 66.5716 104.357 66.6574 104.358 66.744C104.359 66.9198 104.432 67.0879 104.56 67.2117C104.687 67.3354 104.859 67.4049 105.039 67.4049C105.116 67.405 105.192 67.3916 105.265 67.3654L105.623 67.7166C105.183 67.9817 104.802 68.331 104.503 68.7435C104.204 69.156 103.993 69.6238 103.882 70.1181C103.863 70.2135 103.865 70.3124 103.89 70.4072C103.914 70.5019 103.96 70.5906 104.023 70.6656C104.086 70.7413 104.166 70.8019 104.256 70.8435C104.347 70.8858 104.445 70.9069 104.545 70.9069C104.698 70.9076 104.847 70.8572 104.966 70.7638C105.085 70.671 105.168 70.5401 105.202 70.3942C105.321 69.8501 105.627 69.3626 106.069 69.0129C106.512 68.6631 107.062 68.4722 107.63 68.4722C108.199 68.4722 108.75 68.6631 109.192 69.0129C109.634 69.3626 109.94 69.8501 110.059 70.3942C110.092 70.5401 110.176 70.671 110.295 70.7638C110.415 70.8572 110.563 70.9076 110.716 70.9069C110.816 70.9069 110.915 70.8858 111.005 70.8435C111.095 70.8019 111.175 70.7413 111.238 70.6656C111.301 70.5906 111.347 70.5019 111.372 70.4072C111.395 70.3124 111.398 70.2135 111.379 70.1181Z" fill="#FEBD09"/>
<path d="M115.73 73.1514H99.5298C99.2632 73.1514 99.0068 73.255 98.8179 73.4405C98.6291 73.6252 98.5227 73.8761 98.5227 74.138C98.5227 74.3998 98.6291 74.6507 98.8179 74.8355C99.0068 75.0202 99.2632 75.1245 99.5298 75.1245H115.73C115.998 75.1245 116.253 75.0202 116.442 74.8355C116.632 74.6507 116.737 74.3998 116.737 74.138C116.737 73.8761 116.632 73.6252 116.442 73.4405C116.253 73.255 115.998 73.1514 115.73 73.1514Z" fill="#FEBD09"/>
<path d="M113.876 76.7129H101.385C101.116 76.7129 100.859 76.8172 100.669 77.0033C100.479 77.1888 100.373 77.4411 100.373 77.7043C100.373 77.9668 100.479 78.219 100.669 78.4052C100.859 78.5913 101.116 78.6956 101.385 78.6956H113.876C114.145 78.6956 114.402 78.5913 114.592 78.4052C114.781 78.219 114.888 77.9668 114.888 77.7043C114.888 77.4411 114.781 77.1888 114.592 77.0033C114.402 76.8172 114.145 76.7129 113.876 76.7129Z" fill="#FEBD09"/>
<path d="M111.738 80.2705H103.534C103.268 80.2705 103.011 80.3748 102.822 80.5596C102.633 80.7451 102.527 80.996 102.527 81.2571C102.527 81.5189 102.633 81.7698 102.822 81.9546C103.011 82.14 103.268 82.2437 103.534 82.2437H107.185V83.923C106.976 84.0185 106.806 84.1821 106.705 84.3853C106.604 84.5891 106.578 84.8203 106.63 85.0405C106.682 85.2607 106.81 85.4571 106.993 85.5962C107.176 85.7346 107.401 85.8082 107.633 85.8028H107.644C107.874 85.8055 108.098 85.7312 108.278 85.5914C108.459 85.4523 108.585 85.2573 108.637 85.0378C108.688 84.8182 108.662 84.5885 108.561 84.386C108.461 84.1835 108.293 84.0212 108.086 83.925V82.2614H111.749C112.015 82.2614 112.272 82.1578 112.461 81.9723C112.649 81.7875 112.756 81.5366 112.756 81.2748C112.756 81.0137 112.649 80.7628 112.461 80.5773C112.272 80.3926 112.015 80.2889 111.749 80.2889L111.738 80.2705Z" fill="#FEBD09"/>
<path d="M128.593 70.3125V77.5793H126.779V74.5466H123.959V77.5793H122.164V70.3125H123.959V73.1277H126.779V70.3125H128.593Z" fill="#212121"/>
<path d="M135.826 70.3125V77.5793H134.031V70.3125H135.826Z" fill="#212121"/>
<path d="M142.647 70.3125L144.461 75.78L146.274 70.3125H148.194L145.611 77.5793H143.298L140.727 70.3125H142.647Z" fill="#212121"/>
<path d="M154.885 71.7095V73.2307H157.394V74.5561H154.885V76.17H157.706V77.5793H153.096V70.3125H157.71V71.7095H154.885Z" fill="#212121"/>
<path d="M123.415 80.1572C123.544 80.2567 123.635 80.3958 123.673 80.5519H123.403C123.369 80.4619 123.307 80.3849 123.226 80.331C123.138 80.2738 123.035 80.2444 122.929 80.2479C122.84 80.2472 122.753 80.271 122.678 80.3167C122.602 80.3651 122.542 80.434 122.504 80.5144C122.46 80.6058 122.439 80.7054 122.442 80.8063C122.44 80.9072 122.461 81.0067 122.504 81.0981C122.543 81.1785 122.603 81.2467 122.678 81.2958C122.754 81.3401 122.84 81.3633 122.929 81.3626C123.035 81.366 123.138 81.3374 123.226 81.2801C123.307 81.2269 123.369 81.1499 123.403 81.0606H123.681C123.644 81.2174 123.552 81.3565 123.423 81.4554C123.295 81.5399 123.145 81.589 122.991 81.5965C122.836 81.604 122.683 81.5706 122.547 81.499C122.433 81.4329 122.341 81.336 122.283 81.2208C122.22 81.094 122.188 80.9549 122.188 80.8144C122.188 80.6733 122.22 80.5349 122.283 80.4081C122.341 80.2922 122.433 80.196 122.547 80.1299C122.669 80.0597 122.808 80.0249 122.95 80.029C123.115 80.0222 123.278 80.0672 123.415 80.1572Z" fill="#212121"/>
<path d="M125.939 80.1084C126.057 80.1746 126.154 80.2714 126.22 80.3887C126.286 80.5141 126.32 80.6539 126.32 80.795C126.32 80.9362 126.286 81.0759 126.22 81.2014C126.154 81.3187 126.057 81.4168 125.939 81.4837C125.819 81.5505 125.682 81.5852 125.543 81.5852C125.405 81.5852 125.269 81.5505 125.148 81.4837C125.029 81.4168 124.932 81.3187 124.868 81.2014C124.8 81.0759 124.765 80.9368 124.765 80.795C124.765 80.6532 124.8 80.5141 124.868 80.3887C124.932 80.2714 125.029 80.1746 125.148 80.1084C125.269 80.0416 125.405 80.0068 125.543 80.0068C125.682 80.0068 125.819 80.0416 125.939 80.1084ZM125.277 80.3055C125.196 80.3525 125.132 80.4214 125.091 80.5032C125.048 80.5959 125.026 80.6968 125.026 80.7991C125.026 80.9014 125.048 81.0023 125.091 81.095C125.132 81.1768 125.196 81.2457 125.277 81.2921C125.359 81.3371 125.451 81.3602 125.545 81.3596C125.637 81.3609 125.729 81.3377 125.811 81.2921C125.89 81.2457 125.954 81.1768 125.994 81.095C126.038 81.0023 126.061 80.9014 126.061 80.7991C126.061 80.6968 126.038 80.5959 125.994 80.5032C125.954 80.4214 125.89 80.3525 125.811 80.3055C125.729 80.2605 125.637 80.2373 125.545 80.2387C125.451 80.238 125.359 80.2612 125.277 80.3055Z" fill="#212121"/>
<path d="M128.738 81.5681H128.484L127.72 80.4315V81.5681H127.467V80.0312H127.72L128.484 81.1713V80.0312H128.738V81.5681Z" fill="#212121"/>
<path d="M131.208 81.5681H130.954L130.191 80.4315V81.5681H129.937V80.0312H130.191L130.954 81.1713V80.0312H131.208V81.5681Z" fill="#212121"/>
<path d="M132.661 80.2303V80.696H133.239V80.8931H132.661V81.3731H133.306V81.5701H132.407V80.0312H133.306V80.2283L132.661 80.2303Z" fill="#212121"/>
<path d="M135.626 80.1554C135.755 80.2549 135.846 80.394 135.884 80.5502H135.614C135.58 80.4595 135.518 80.3824 135.436 80.3293C135.349 80.272 135.246 80.2427 135.141 80.2461C135.052 80.2454 134.965 80.2693 134.89 80.3156C134.814 80.3627 134.753 80.4315 134.715 80.5127C134.671 80.604 134.65 80.7036 134.653 80.8045C134.65 80.9054 134.671 81.0056 134.715 81.0963C134.753 81.1754 134.813 81.2422 134.888 81.2886C134.964 81.3349 135.051 81.3588 135.141 81.3568C135.246 81.3602 135.349 81.3315 135.436 81.2743C135.518 81.2218 135.58 81.1447 135.614 81.0554H135.884C135.846 81.2115 135.756 81.3506 135.626 81.4495C135.498 81.5347 135.348 81.5831 135.194 81.5906C135.04 81.5981 134.886 81.5647 134.749 81.4931C134.637 81.4263 134.545 81.3302 134.485 81.2149C134.425 81.0881 134.393 80.949 134.393 80.8086C134.393 80.6681 134.425 80.529 134.485 80.4022C134.545 80.287 134.637 80.1908 134.749 80.124C134.871 80.0538 135.011 80.019 135.152 80.0231C135.321 80.0163 135.487 80.0627 135.626 80.1554Z" fill="#212121"/>
<path d="M138.039 80.0283V80.2254H137.6V81.5631H137.344V80.2295H136.907V80.0324L138.039 80.0283Z" fill="#212121"/>
<path d="M141.631 81.5669L141.337 81.2437C141.331 81.2689 141.324 81.2941 141.315 81.3187C141.295 81.3978 141.247 81.468 141.18 81.5157C141.108 81.5655 141.022 81.5914 140.934 81.5887C140.846 81.5907 140.759 81.5703 140.68 81.5294C140.609 81.4919 140.551 81.4353 140.511 81.3657C140.47 81.2928 140.449 81.2103 140.45 81.1271C140.448 81.0446 140.467 80.9621 140.505 80.8885C140.539 80.8251 140.591 80.7719 140.654 80.7364C140.716 80.7016 140.785 80.6832 140.855 80.6832H140.872L140.844 80.6437C140.81 80.6048 140.782 80.5619 140.761 80.5155C140.74 80.4691 140.73 80.4194 140.731 80.3696C140.731 80.3089 140.747 80.2496 140.779 80.1978C140.814 80.1426 140.864 80.0976 140.922 80.0676C140.992 80.0335 141.069 80.0171 141.148 80.0185C141.256 80.0116 141.363 80.0444 141.448 80.1112C141.517 80.1712 141.562 80.253 141.577 80.3416C141.592 80.3914 141.597 80.4439 141.593 80.4957H141.353V80.4719C141.353 80.4501 141.353 80.4344 141.353 80.4248C141.354 80.3716 141.335 80.3205 141.299 80.281C141.279 80.2626 141.257 80.2489 141.232 80.2401C141.207 80.2305 141.181 80.2264 141.154 80.2271C141.129 80.2257 141.106 80.2291 141.082 80.238C141.06 80.2462 141.039 80.2598 141.023 80.2769C141.007 80.2919 140.994 80.3103 140.986 80.3301C140.978 80.3498 140.974 80.3716 140.975 80.3928C140.974 80.4282 140.981 80.4637 140.996 80.4957C141.018 80.5319 141.042 80.566 141.069 80.598L141.889 81.573L141.631 81.5669ZM141.116 81.3044C141.139 81.2819 141.157 81.2539 141.169 81.2239C141.181 81.1939 141.187 81.1612 141.186 81.1291C141.186 81.0814 141.172 81.0351 141.146 80.9948C141.121 80.956 141.085 80.9239 141.043 80.9021C141.003 80.8789 140.958 80.8666 140.912 80.8666C140.88 80.8653 140.848 80.8707 140.818 80.8816C140.787 80.8932 140.76 80.9096 140.737 80.9314C140.69 80.9832 140.665 81.0487 140.665 81.1169C140.665 81.1857 140.69 81.2512 140.737 81.3023C140.789 81.348 140.856 81.3732 140.926 81.3719C140.96 81.3739 140.995 81.3691 141.028 81.3576C141.061 81.346 141.091 81.3282 141.116 81.3044Z" fill="#212121"/>
<path d="M145.542 80.1581C145.671 80.257 145.762 80.3961 145.8 80.5522H145.53C145.496 80.4622 145.434 80.3852 145.353 80.3313C145.266 80.274 145.162 80.2454 145.057 80.2488C144.968 80.2474 144.88 80.2713 144.805 80.3177C144.729 80.3661 144.669 80.4343 144.631 80.5147C144.588 80.6061 144.566 80.7063 144.569 80.8072C144.567 80.9074 144.588 81.0077 144.631 81.099C144.67 81.1795 144.73 81.2477 144.805 81.2961C144.881 81.3411 144.968 81.3643 145.057 81.3636C145.162 81.367 145.266 81.3377 145.353 81.2804C145.434 81.2272 145.496 81.1509 145.53 81.0615H145.8C145.763 81.2177 145.672 81.3575 145.542 81.4563C145.414 81.5409 145.265 81.5893 145.11 81.5968C144.956 81.605 144.802 81.5709 144.666 81.4993C144.552 81.4331 144.461 81.337 144.402 81.2211C144.34 81.0943 144.307 80.9559 144.307 80.8147C144.307 80.6743 144.34 80.5352 144.402 80.4084C144.461 80.2931 144.552 80.1963 144.666 80.1302C144.788 80.0606 144.927 80.0252 145.068 80.0293C145.236 80.0211 145.403 80.0661 145.542 80.1581Z" fill="#212121"/>
<path d="M148.058 80.1084C148.176 80.1746 148.273 80.2714 148.338 80.3887C148.404 80.5141 148.439 80.6539 148.439 80.795C148.439 80.9362 148.404 81.0759 148.338 81.2014C148.274 81.3187 148.176 81.4168 148.058 81.4837C147.937 81.5505 147.801 81.5852 147.663 81.5852C147.524 81.5852 147.387 81.5505 147.267 81.4837C147.149 81.4168 147.052 81.3187 146.986 81.2014C146.919 81.0759 146.884 80.9368 146.884 80.795C146.884 80.6532 146.919 80.5141 146.986 80.3887C147.052 80.2714 147.149 80.1746 147.267 80.1084C147.387 80.0416 147.524 80.0068 147.663 80.0068C147.801 80.0068 147.937 80.0416 148.058 80.1084ZM147.395 80.3055C147.315 80.3518 147.25 80.4207 147.21 80.5032C147.167 80.5959 147.144 80.6968 147.144 80.7991C147.144 80.9014 147.167 81.0023 147.21 81.095C147.25 81.1775 147.315 81.2464 147.395 81.2921C147.477 81.3371 147.57 81.3602 147.663 81.3596C147.757 81.3609 147.848 81.3377 147.929 81.2921C148.009 81.2457 148.072 81.1768 148.113 81.095C148.157 81.0023 148.18 80.9014 148.18 80.7991C148.18 80.6968 148.157 80.5959 148.113 80.5032C148.072 80.4214 148.009 80.3525 147.929 80.3055C147.848 80.2605 147.757 80.2373 147.663 80.2387C147.573 80.2393 147.483 80.2618 147.404 80.3055H147.395Z" fill="#212121"/>
<path d="M151.224 80.0518V81.5674H150.968V80.4308L150.521 81.5674H150.297L149.848 80.4308V81.5674H149.594V80.0518H149.902L150.414 81.2633L150.918 80.0518H151.224Z" fill="#212121"/>
<path d="M154.051 80.0518V81.5674H153.795V80.4308L153.346 81.5674H153.124L152.675 80.4308V81.5674H152.421V80.0518H152.727L153.239 81.2633L153.743 80.0518H154.051Z" fill="#212121"/>
<path d="M155.499 80.0283V81.5672H155.245V80.0283H155.499Z" fill="#212121"/>
<path d="M157.709 80.0283V80.2254H157.27V81.5631H157.015V80.2295H156.577V80.0324L157.709 80.0283Z" fill="#212121"/>
</g>
<path d="M146.796 51.4775H109.573V54.1343H146.796V51.4775Z" fill="#212121"/>
<path d="M115.062 279.26L141.312 279.237C142.409 279.237 143.303 278.639 143.303 277.886V275.615C143.303 274.871 142.413 274.267 141.312 274.27L115.064 274.293C113.967 274.293 113.073 274.891 113.073 275.643V277.914C113.077 278.659 113.965 279.262 115.062 279.26Z" fill="#212121"/>
<path opacity="0.06" d="M68.5938 71.0586C85.7081 141.408 128.022 203.04 187.525 244.287L187.549 271.755L68.7628 271.886L68.5938 71.0586Z" fill="#FEBD09"/>
<path d="M114.938 222.544H173.356C174.685 222.544 175.763 221.114 175.763 219.357C175.763 217.597 174.685 216.171 173.356 216.171H114.938C113.607 216.171 112.529 217.601 112.529 219.357C112.519 221.114 113.597 222.544 114.938 222.544Z" fill="#757575"/>
<path d="M146.733 209.778H173.347C174.675 209.778 175.752 208.351 175.752 206.592C175.752 204.83 174.675 203.405 173.347 203.405H146.733C145.404 203.405 144.327 204.835 144.327 206.592C144.327 208.351 145.409 209.778 146.733 209.778Z" fill="#757575"/>
<path d="M175.454 141.064H101.98C101.815 141.064 101.682 141.198 101.682 141.363V145.431C101.682 145.596 101.815 145.73 101.98 145.73H175.454C175.619 145.73 175.753 145.596 175.753 145.431V141.363C175.753 141.198 175.619 141.064 175.454 141.064Z" fill="#757575"/>
<path d="M93.4281 136.979H80.0665C79.9097 136.979 79.7822 137.106 79.7822 137.264V149.528C79.7822 149.685 79.9097 149.812 80.0665 149.812H93.4281C93.5856 149.812 93.7131 149.685 93.7131 149.528V137.264C93.7131 137.106 93.5856 136.979 93.4281 136.979Z" fill="white"/>
<path d="M175.454 120.299H101.98C101.815 120.299 101.682 120.432 101.682 120.597V124.666C101.682 124.831 101.815 124.965 101.98 124.965H175.454C175.619 124.965 175.753 124.831 175.753 124.666V120.597C175.753 120.432 175.619 120.299 175.454 120.299Z" fill="#757575"/>
<path d="M93.4281 116.215H80.0665C79.9097 116.215 79.7822 116.342 79.7822 116.5V128.764C79.7822 128.921 79.9097 129.049 80.0665 129.049H93.4281C93.5856 129.049 93.7131 128.921 93.7131 128.764V116.5C93.7131 116.342 93.5856 116.215 93.4281 116.215Z" fill="white"/>
<path d="M175.454 160.994H101.98C101.815 160.994 101.682 161.128 101.682 161.293V165.362C101.682 165.527 101.815 165.661 101.98 165.661H175.454C175.619 165.661 175.753 165.527 175.753 165.362V161.293C175.753 161.128 175.619 160.994 175.454 160.994Z" fill="#757575"/>
<path d="M93.4281 156.911H80.0665C79.9097 156.911 79.7822 157.039 79.7822 157.195V169.46C79.7822 169.618 79.9097 169.745 80.0665 169.745H93.4281C93.5856 169.745 93.7131 169.618 93.7131 169.46V157.195C93.7131 157.039 93.5856 156.911 93.4281 156.911Z" fill="white"/>
<path d="M175.454 180.924H101.98C101.815 180.924 101.682 181.058 101.682 181.223V185.292C101.682 185.457 101.815 185.59 101.98 185.59H175.454C175.619 185.59 175.753 185.457 175.753 185.292V181.223C175.753 181.058 175.619 180.924 175.454 180.924Z" fill="#757575"/>
<path d="M93.4281 176.841H80.0665C79.9097 176.841 79.7822 176.968 79.7822 177.126V189.39C79.7822 189.547 79.9097 189.675 80.0665 189.675H93.4281C93.5856 189.675 93.7131 189.547 93.7131 189.39V177.126C93.7131 176.968 93.5856 176.841 93.4281 176.841Z" fill="white"/>
<path d="M174.719 99.5107H79.1004C79.0159 99.5107 78.947 99.5796 78.947 99.6641V101.692C78.947 101.776 79.0159 101.845 79.1004 101.845H174.719C174.803 101.845 174.872 101.776 174.872 101.692V99.6641C174.872 99.5796 174.803 99.5107 174.719 99.5107Z" fill="#757575"/>
<path d="M83.7471 125.767C83.4478 125.768 83.1519 125.7 82.8819 125.571C82.6119 125.441 82.3746 125.252 82.1878 125.018L78.358 120.238C78.2366 120.094 78.146 119.926 78.0907 119.746C78.0355 119.565 78.0164 119.376 78.0355 119.188C78.0546 119 78.1105 118.818 78.2005 118.652C78.2912 118.486 78.4132 118.34 78.5605 118.222C78.7085 118.104 78.8776 118.017 79.0596 117.966C79.241 117.914 79.4312 117.9 79.618 117.922C79.8055 117.945 79.9869 118.005 80.1505 118.099C80.3141 118.193 80.458 118.318 80.5726 118.468L83.8903 122.614L94.0473 114.965C94.196 114.849 94.3657 114.764 94.5471 114.715C94.7291 114.665 94.9187 114.653 95.1055 114.677C95.2916 114.702 95.4716 114.763 95.6339 114.858C95.7969 114.953 95.9387 115.079 96.0519 115.23C96.1657 115.38 96.2476 115.551 96.2939 115.733C96.3403 115.915 96.3498 116.106 96.3226 116.292C96.2946 116.478 96.2298 116.657 96.1323 116.818C96.0348 116.978 95.9066 117.118 95.7546 117.229L84.8939 125.413C84.5571 125.646 84.1569 125.77 83.7471 125.767Z" fill="#212121"/>
<path d="M83.7471 147.42C83.4478 147.42 83.1519 147.354 82.8819 147.225C82.6119 147.095 82.3746 146.907 82.1878 146.673L78.358 141.893C78.2366 141.748 78.146 141.581 78.0907 141.4C78.0355 141.22 78.0164 141.03 78.0355 140.842C78.0546 140.655 78.1105 140.473 78.2005 140.306C78.2912 140.141 78.4132 139.995 78.5605 139.877C78.7085 139.759 78.8776 139.671 79.0596 139.62C79.241 139.569 79.4312 139.554 79.618 139.577C79.8055 139.6 79.9869 139.66 80.1505 139.753C80.3141 139.847 80.458 139.973 80.5726 140.123L83.8903 144.269L94.0473 136.622C94.1953 136.501 94.3657 136.412 94.5491 136.359C94.7326 136.305 94.9241 136.29 95.1137 136.313C95.3026 136.336 95.4853 136.397 95.651 136.492C95.816 136.587 95.9605 136.714 96.0751 136.866C96.1903 137.019 96.2728 137.193 96.3191 137.378C96.3655 137.563 96.3737 137.755 96.3437 137.944C96.3137 138.132 96.2462 138.312 96.1446 138.474C96.0437 138.635 95.9107 138.775 95.7546 138.884L84.8939 147.067C84.5571 147.3 84.1569 147.423 83.7471 147.42Z" fill="#212121"/>
<path d="M83.7471 167.12C83.4478 167.121 83.1519 167.054 82.8819 166.924C82.6119 166.796 82.3746 166.607 82.1878 166.373L78.358 161.593C78.2366 161.448 78.146 161.281 78.0907 161.1C78.0355 160.92 78.0164 160.73 78.0355 160.543C78.0546 160.354 78.1105 160.172 78.2005 160.007C78.2912 159.841 78.4132 159.695 78.5605 159.577C78.7085 159.459 78.8776 159.372 79.0596 159.32C79.241 159.269 79.4312 159.254 79.618 159.277C79.8055 159.3 79.9869 159.36 80.1505 159.454C80.3141 159.547 80.458 159.673 80.5726 159.823L83.8903 163.969L94.0473 156.322C94.1953 156.201 94.3657 156.112 94.5491 156.059C94.7326 156.006 94.9241 155.99 95.1137 156.013C95.3026 156.036 95.4853 156.097 95.651 156.192C95.816 156.287 95.9605 156.415 96.0751 156.567C96.1903 156.719 96.2728 156.893 96.3191 157.078C96.3655 157.263 96.3737 157.455 96.3437 157.644C96.3137 157.832 96.2462 158.012 96.1446 158.174C96.0437 158.336 95.9107 158.475 95.7546 158.584L84.8939 166.768C84.5571 167 84.1569 167.123 83.7471 167.12Z" fill="#212121"/>
<path d="M83.7463 187.47C83.447 187.47 83.1518 187.404 82.8818 187.274C82.6118 187.145 82.3745 186.956 82.187 186.723L78.3572 181.943C78.1322 181.648 78.0306 181.277 78.0756 180.909C78.1206 180.541 78.3081 180.205 78.5979 179.974C78.8877 179.742 79.2565 179.633 79.6254 179.67C79.9943 179.707 80.3345 179.888 80.5718 180.172L83.8902 184.321L94.0472 176.671C94.3479 176.452 94.7229 176.36 95.0904 176.415C95.4586 176.47 95.7899 176.667 96.0143 176.964C96.2379 177.261 96.3361 177.635 96.2877 178.003C96.2386 178.372 96.047 178.707 95.7538 178.935L84.8938 187.117C84.557 187.35 84.1561 187.473 83.7463 187.47Z" fill="#212121"/>
<path d="M93.2032 253.882C92.6837 254.144 91.6439 254.403 90.3096 254.403C87.2223 254.403 84.8987 252.453 84.8987 248.86C84.8987 245.432 87.2223 243.108 90.6185 243.108C91.9848 243.108 92.8466 243.399 93.2196 243.594L92.8787 244.749C92.1846 244.435 91.4298 244.28 90.6682 244.293C88.1012 244.293 86.3939 245.936 86.3939 248.812C86.3939 251.495 87.9375 253.218 90.6021 253.218C91.395 253.229 92.1819 253.074 92.9107 252.762L93.2032 253.882Z" fill="#212121"/>
<path d="M103.995 248.65C103.995 252.422 101.703 254.426 98.9079 254.426C96.0143 254.426 93.9832 252.181 93.9832 248.865C93.9832 245.388 96.1438 243.113 99.0695 243.113C102.061 243.11 103.995 245.4 103.995 248.65ZM95.4948 248.83C95.4948 251.17 96.7616 253.267 98.9877 253.267C101.215 253.267 102.499 251.204 102.499 248.716C102.499 246.537 101.362 244.263 99.0054 244.263C96.6497 244.263 95.4948 246.424 95.4948 248.83Z" fill="#212121"/>
<path d="M115.065 249.432C114.983 247.904 114.886 246.067 114.902 244.701H114.854C114.479 245.986 114.023 247.35 113.472 248.862L111.538 254.177H110.465L108.694 248.959C108.172 247.416 107.734 246.002 107.425 244.701H107.393C107.36 246.067 107.28 247.904 107.182 249.545L106.889 254.243H105.539L106.304 243.289H108.108L109.977 248.589C110.433 249.937 110.807 251.14 111.082 252.277H111.132C111.406 251.172 111.797 249.969 112.285 248.589L114.235 243.289H116.039L116.722 254.243H115.336L115.065 249.432Z" fill="#212121"/>
<path d="M118.9 243.417C119.797 243.27 120.705 243.199 121.614 243.204C123.009 243.204 124.036 243.531 124.685 244.115C125.002 244.404 125.253 244.758 125.418 245.154C125.584 245.551 125.662 245.978 125.645 246.407C125.645 247.402 125.353 248.179 124.799 248.747C124.052 249.543 122.834 249.941 121.452 249.941C121.07 249.954 120.688 249.922 120.314 249.844V254.225H118.9V243.417ZM120.314 248.699C120.697 248.785 121.09 248.823 121.483 248.812C123.19 248.812 124.231 247.984 124.231 246.472C124.231 245.024 123.206 244.327 121.642 244.327C121.195 244.314 120.749 244.353 120.31 244.441L120.314 248.699Z" fill="#212121"/>
<path d="M127.548 243.286H128.962V253.045H133.643V254.24H127.548V243.286Z" fill="#212121"/>
<path d="M140.892 249.105H136.634V253.054H141.38V254.249H135.219V243.295H141.135V244.49H136.634V247.951H140.892V249.105Z" fill="#212121"/>
<path d="M145.556 244.49H142.222V243.295H150.331V244.49H146.984V254.249H145.554L145.556 244.49Z" fill="#212121"/>
<path d="M157.227 249.105H152.978V253.054H157.724V254.249H151.563V243.295H157.48V244.49H152.978V247.951H157.238L157.227 249.105Z" fill="#212121"/>
<path d="M159.55 243.433C160.544 243.282 161.549 243.205 162.555 243.204C164.588 243.204 166.034 243.677 166.992 244.57C167.95 245.465 168.537 246.731 168.537 248.504C168.537 250.277 167.984 251.754 166.96 252.762C165.936 253.77 164.246 254.34 162.117 254.34C161.259 254.344 160.402 254.3 159.55 254.208V243.433ZM160.964 253.12C161.438 253.185 161.915 253.211 162.393 253.2C165.417 253.2 167.058 251.511 167.058 248.552C167.073 245.963 165.612 244.328 162.62 244.328C162.065 244.318 161.509 244.367 160.964 244.473V253.12Z" fill="#212121"/>
<path d="M208.826 149.167C208.826 149.167 210.1 150.959 207.495 152.285C206.898 152.592 206.874 153.363 207.175 154.424L204.359 155.141C203.978 151.913 203.791 149.441 203.913 148.88C204.245 147.32 204.494 146.478 205.544 147.053C206.593 147.629 206.868 145.82 207.655 146.466C208.441 147.111 209.037 145.117 209.585 146.145C210.132 147.173 208.826 149.167 208.826 149.167Z" fill="#FBC0A4"/>
<path d="M203.697 155.103L203.444 153.159C203.444 153.159 205.79 152.044 207.961 152.502L208.198 154.316L203.697 155.103Z" fill="#F8E8D8"/>
<path d="M221.206 186.375C221.206 186.375 204.676 175.058 203.195 171.615C201.712 168.171 203.195 153.742 203.195 153.742L208.247 152.669L209.426 169.136C209.426 169.136 228.53 175.194 221.206 186.375Z" fill="#4484E0"/>
<path d="M204.006 165.039C204.676 170.251 205.171 170.994 205.171 170.994C206.146 173.348 219.03 184.853 219.036 184.861C214.505 181.661 204.348 174.282 203.195 171.615C202.012 168.879 202.703 159.213 203.035 155.355C203.237 157.827 203.586 161.763 204.006 165.039Z" fill="#286BCE"/>
<path d="M226.267 275.481L226.611 279.149C226.611 279.149 223.2 280.679 222.594 279.946C221.989 279.213 221.572 279.41 221.572 279.41L221.282 274.77L226.267 275.481Z" fill="#22313B"/>
<path d="M241.15 274.356L240.937 277.877L236.494 277.642L235.966 273.721L241.15 274.356Z" fill="#22313B"/>
<path d="M239.96 214.966C239.96 214.966 240.209 224.175 239.699 229.458C239.189 234.742 238.242 247.934 239.001 251.862C239.697 255.47 241.827 271.27 242.221 275.849C242.231 275.969 242.217 276.089 242.178 276.202C242.14 276.316 242.078 276.421 241.998 276.509C241.917 276.598 241.818 276.669 241.709 276.718C241.599 276.766 241.48 276.792 241.36 276.793C239.401 276.793 236.266 277.141 235.732 276.136C235.045 274.839 229.945 254.765 229.186 250.842C228.698 248.39 227.978 245.989 227.035 243.672C227.035 243.672 226.525 248.954 226.636 252.901L227.266 276.171C227.271 276.305 227.247 276.438 227.196 276.562C227.146 276.687 227.069 276.798 226.972 276.89C226.875 276.982 226.759 277.053 226.632 277.096C226.506 277.141 226.372 277.157 226.238 277.145C224.446 276.976 222.277 276.946 220.825 276.504C220.825 276.504 218.491 261.031 217.638 253.816C216.786 246.6 215.474 220.337 217.27 217.312C219.067 214.287 239.96 214.966 239.96 214.966Z" fill="#3F4752"/>
<path d="M242.222 275.848C242.232 275.968 242.218 276.088 242.18 276.202C242.141 276.315 242.08 276.42 241.998 276.509C241.918 276.598 241.819 276.668 241.71 276.718C241.6 276.766 241.482 276.792 241.362 276.792C240.938 276.792 240.389 276.792 239.796 276.774C238.786 269.381 235.227 248.295 234.542 243.765C233.945 239.848 235.737 223.119 236.678 214.905C238.659 214.924 239.961 214.965 239.961 214.965C239.961 214.965 240.211 224.175 239.701 229.458C239.191 234.741 238.243 247.934 239.001 251.861C239.699 255.47 241.827 271.27 242.222 275.848Z" fill="#2F3740"/>
<path d="M225.005 228.909C225.728 231.523 227.337 244.418 227.337 244.418C227.154 243.938 227.037 243.659 227.037 243.659C227.037 243.659 226.527 248.941 226.638 252.888L227.268 276.158C227.272 276.291 227.249 276.425 227.198 276.549C227.147 276.673 227.071 276.784 226.973 276.877C226.876 276.969 226.76 277.039 226.634 277.083C226.507 277.127 226.373 277.144 226.24 277.132C224.748 276.99 223.053 276.889 221.345 276.534C222.565 276.277 224.45 275.379 224.929 274.328C225.547 272.991 223.585 248.692 223.585 248.692C224.762 244.059 225.005 228.909 225.005 228.909Z" fill="#2F3740"/>
<path d="M241.666 278.036C241.666 278.036 236.811 276.311 235.626 276.971C235.626 276.971 235.66 278.215 235.076 278.856C234.493 279.498 230.99 283.341 231.607 283.947C232.224 284.552 238.247 284.995 241.818 283.642L241.666 278.036Z" fill="#2D313D"/>
<path d="M226.666 278.368C226.716 278.363 226.767 278.368 226.815 278.384C226.863 278.399 226.907 278.425 226.945 278.458C226.982 278.492 227.012 278.533 227.033 278.579C227.054 278.625 227.065 278.674 227.065 278.725L227.192 283.433C227.192 283.433 227.75 283.984 224.489 284.082C221.229 284.18 212.54 284.439 211.973 283.883C211.405 283.327 211.94 282.75 214.629 281.533C217.318 280.316 220.251 278.241 221.309 277.074C221.309 277.074 223.482 277.01 222.984 278.727C222.984 278.731 223.48 278.717 226.666 278.368Z" fill="#2D313D"/>
<path d="M232.471 172.08L231.674 168.734L224.791 168.776L224.301 173.04C224.301 173.04 227.781 178.345 232.471 172.08Z" fill="#BA6549"/>
<path d="M221.12 159.403C221.12 159.403 221.172 162.956 221.295 164.852C221.419 166.748 221.653 171.096 225.3 171.464C228.946 171.833 230.877 169.819 232.157 168.915C232.157 168.915 236.228 164.631 235.542 163.41C234.858 162.189 234.009 158.431 230.402 158.702C226.795 158.973 221.12 159.403 221.12 159.403Z" fill="#FEB48C"/>
<path d="M231.991 169.067C231.991 169.067 236.547 164.925 237.583 162.308C238.619 159.691 238.493 157.795 237.209 156.618C237.209 156.618 238.328 155.266 238.929 155.224C238.929 155.224 237.125 155.355 236.565 156.03C236.565 156.03 237.041 154.091 236.4 153.504C236.4 153.504 236.484 154.766 235.924 155.443C235.924 155.443 233.745 149.885 230.18 150.779C226.615 151.673 220.82 155.274 219.571 154.728C219.571 154.728 220.212 155.325 221.415 155.23C220.277 155.7 219.076 156.002 217.851 156.125C217.851 156.125 218.661 159.243 223.552 160.155C228.443 161.068 232.009 160.175 232.009 160.175C232.009 160.175 231.096 164.688 231.823 166.548C231.823 166.548 232.859 163.933 234.06 163.845C235.261 163.758 234.186 165.742 233.626 166.417C233.066 167.092 231.389 169.112 231.991 169.067Z" fill="#221E52"/>
<path d="M233.835 171.51C233.835 171.51 235.048 175.41 234.406 175.862C233.766 176.314 230.768 177.961 230.768 177.961C230.768 177.961 232.337 180.137 232.337 181.263C232.337 182.388 220.856 197.026 220.856 197.026C220.856 197.026 217.645 181.187 218.359 180.438C219.072 179.689 220.279 178.337 220.279 178.337C220.279 178.337 219.282 175.185 220.279 174.435C221.274 173.687 224.206 172.934 224.206 172.934L225.562 174.129L232.409 170.303L233.835 171.51Z" fill="#F5F5F5"/>
<path d="M217.421 209.772C217.421 208.872 216.993 193.567 216.993 193.567C216.993 193.567 215.423 182.464 217.136 178.562C217.741 177.201 218.688 176.021 219.886 175.137C219.632 176.332 220.269 178.337 220.269 178.337C220.269 178.337 219.062 179.688 218.349 180.436C217.636 181.185 220.846 197.026 220.846 197.026L222.485 215.052L221.49 220.368C221.49 220.368 218.21 221.144 215.714 217.709C215.712 217.709 217.421 210.673 217.421 209.772Z" fill="#4484E0"/>
<path d="M220.612 215.625C220.612 215.625 219.773 197.502 219.096 194.355C218.755 192.762 219.018 190.786 219.363 189.207C220.068 193.19 220.844 197.026 220.844 197.026L222.483 215.052L221.488 220.367C220.174 220.582 218.827 220.307 217.704 219.593C218.943 218.49 219.933 217.138 220.612 215.625Z" fill="#286BCE"/>
<path d="M224.195 172.934L225.552 174.129L232.398 170.303L232.638 170.502L227.78 176.303L225.693 174.711L223.287 175.949L222.01 173.603C223.094 173.219 224.195 172.934 224.195 172.934Z" fill="#9BD4DF"/>
<path d="M224.077 177.305L223.575 175.809L225.702 174.716L227.532 176.11L225.809 178.087L224.686 187.02L221.392 196.334L220.855 197.022C220.855 197.022 220.765 196.578 220.621 195.847L224.077 177.305Z" fill="#DE3D73"/>
<path d="M221.383 196.338C225.701 183.506 233.946 171.919 233.946 171.919C234.237 172.933 234.91 175.504 234.396 175.858C233.753 176.311 230.757 177.96 230.757 177.96C230.757 177.96 232.327 180.136 232.327 181.262C232.327 182.24 223.644 193.439 221.383 196.338Z" fill="#68A9EA"/>
<path d="M218.35 180.433C219.062 179.684 220.269 178.334 220.269 178.334C220.269 178.334 219.273 175.181 220.269 174.432C220.812 174.083 221.398 173.805 222.012 173.605C221.966 177.282 220.419 194.822 220.419 194.824C219.563 190.45 217.801 181.01 218.35 180.433Z" fill="#68A9EA"/>
<path d="M220.846 197.026C220.846 197.026 232.327 182.388 232.327 181.263C232.327 180.138 230.758 177.96 230.758 177.96C230.758 177.96 233.745 176.311 234.396 175.859C235.047 175.407 233.825 171.51 233.825 171.51C233.825 171.51 238.533 173.571 241.741 176.311L240.805 195.969L239.467 204.532L241.249 218.908C241.249 218.908 229.754 221.477 223.335 219.903C223.335 219.903 219.696 199.987 220.338 198.408C220.424 198.211 220.597 197.729 220.846 197.026Z" fill="#4484E0"/>
<path d="M238.93 188.175C238.93 188.175 239.538 188.201 236.967 182.031L241.685 177.55L240.806 195.968L240.055 200.776L238.715 200.326L238.93 188.175Z" fill="#286BCE"/>
<path d="M238.747 200.768C238.747 200.66 238.747 200.509 238.722 200.324L240.817 195.879V195.967L239.478 204.53L241.747 219.666C241.747 219.666 237.495 219.76 231.845 220.2L234.758 213.515C234.758 213.515 238.747 202.569 238.747 200.768Z" fill="#286BCE"/>
<path d="M247.618 148.745C247.618 148.745 246.288 150.609 249.012 151.999C249.638 152.319 249.661 153.122 249.347 154.231L252.282 154.97C252.681 151.602 252.88 149.024 252.749 148.438C252.4 146.811 252.141 145.93 251.046 146.532C249.951 147.134 249.666 145.246 248.845 145.921C248.024 146.596 247.401 144.513 246.831 145.586C246.262 146.66 247.618 148.745 247.618 148.745Z" fill="#FBC0A4"/>
<path d="M252.971 154.941L253.234 152.913C253.234 152.913 250.786 151.75 248.522 152.226L248.275 154.12L252.971 154.941Z" fill="#F8E8D8"/>
<path d="M234.702 187.555C234.702 187.555 251.938 175.749 253.491 172.156C255.044 168.563 253.501 153.51 253.501 153.51L248.232 152.392L247.002 169.571C247.002 169.571 226.653 175.285 234.702 187.555Z" fill="#4484E0"/>
<path d="M252.648 165.297C251.949 170.734 251.431 171.509 251.431 171.509C250.413 173.964 236.974 185.967 236.967 185.973C241.694 182.638 252.29 174.938 253.497 172.156C254.731 169.302 254.013 159.211 253.664 155.193C253.451 157.773 253.086 161.879 252.648 165.297Z" fill="#286BCE"/>
</g>
<defs>
<clipPath id="clip0_208_55">
<rect width="300" height="290.455" fill="white"/>
</clipPath>
</defs>
</svg>
